<?xml version="1.0" encoding="UTF-8" standalone="no"?>
<svg
   width="566.37476"
   height="170.88663"
   viewBox="0 0 566.37476 170.88663"
   version="1.1"
   id="svg217"
   sodipodi:docname="adder_rmse.svg"
   inkscape:version="1.4.3 (0d15f75042, 2025-12-25)"
   xmlns:inkscape="http://www.inkscape.org/namespaces/inkscape"
   xmlns:sodipodi="http://sodipodi.sourceforge.net/DTD/sodipodi-0.dtd"
   xmlns:xlink="http://www.w3.org/1999/xlink"
   xmlns="http://www.w3.org/2000/svg"
   xmlns:svg="http://www.w3.org/2000/svg">
  <sodipodi:namedview
     id="namedview217"
     pagecolor="#ffffff"
     bordercolor="#000000"
     borderopacity="0.25"
     inkscape:showpageshadow="2"
     inkscape:pageopacity="0.0"
     inkscape:pagecheckerboard="0"
     inkscape:deskcolor="#d1d1d1"
     inkscape:current-layer="svg217" />
  <defs
     id="defs49">
    <g
       id="g49">
      <g
         id="glyph-0-0-f0c744e6">
        <path
           d="M 9.484375,-3.71875 C 9.171875,-1.0625 7.765625,0.25 5.28125,0.25 c -3,0 -4.609375,-2.25 -4.609375,-5.234375 0,-2.984375 1.5625,-5.46875 4.65625,-5.46875 2.25,0 3.53125,1.171875 3.9375,3.40625 0,0 -1.328125,0 -1.328125,0 C 7.609375,-8.59375 6.78125,-9.3125 5.1875,-9.3125 c -1.984375,0 -3.21875,1.703125 -3.21875,4.3125 0,2.546875 1.296875,4.109375 3.328125,4.109375 1.71875,0 2.53125,-0.90625 2.84375,-2.828125 z m 0,0"
           id="path1" />
      </g>
      <g
         id="glyph-0-1-f0c744e6">
        <path
           d="m 7.1875,-3.328125 c 0,0 -5.40625,0 -5.40625,0 C 1.8125,-1.65625 2.71875,-0.875 3.9375,-0.875 c 0.9375,0 1.59375,-0.390625 1.921875,-1.34375 0,0 1.171875,0 1.171875,0 -0.296875,1.484375 -1.453125,2.421875 -3.140625,2.421875 -2.0625,0 -3.328125,-1.421875 -3.328125,-3.828125 0,-2.40625 1.3125,-3.921875 3.359375,-3.921875 1.375,0 2.484375,0.734375 2.96875,1.9375 C 7.09375,-5.0625 7.1875,-4.390625 7.1875,-3.328125 Z M 5.9375,-4.375 c 0,-1.140625 -0.890625,-2.09375 -2.03125,-2.09375 -1.171875,0 -2,0.875 -2.09375,2.1875 0,0 4.109375,0 4.109375,0 C 5.9375,-4.3125 5.9375,-4.375 5.9375,-4.375 Z m 0,0"
           id="path2" />
      </g>
      <g
         id="glyph-0-2-f0c744e6">
        <path
           d="m 2.109375,0 c 0,0 -1.15625,0 -1.15625,0 0,0 0,-10.203125 0,-10.203125 0,0 1.15625,0 1.15625,0 z m 0,0"
           id="path3" />
      </g>
      <g
         id="glyph-0-3-f0c744e6">
        <path
           d="m 6.421875,-2.0625 c 0,1.421875 -1.171875,2.265625 -3.015625,2.265625 -1.921875,0 -2.875,-0.75 -2.9375,-2.4375 0,0 1.234375,0 1.234375,0 C 1.859375,-1.125 2.453125,-0.875 3.5,-0.875 c 1.015625,0 1.703125,-0.40625 1.703125,-1.078125 0,-0.53125 -0.3125,-0.78125 -1.125,-0.96875 0,0 -1.09375,-0.265625 -1.09375,-0.265625 C 1.25,-3.609375 0.65625,-4.15625 0.65625,-5.3125 c 0,-1.34375 1.109375,-2.234375 2.8125,-2.234375 1.703125,0 2.65625,0.8125 2.65625,2.25 0,0 -1.21875,0 -1.21875,0 C 4.875,-6.0625 4.375,-6.46875 3.4375,-6.46875 c -0.953125,0 -1.5625,0.4375 -1.5625,1.109375 0,0.515625 0.40625,0.828125 1.359375,1.046875 0,0 1.125,0.265625 1.125,0.265625 1.453125,0.34375 2.0625,0.890625 2.0625,1.984375 z m 0,0"
           id="path4" />
      </g>
      <g
         id="glyph-0-4-f0c744e6" />
      <g
         id="glyph-0-5-f0c744e6">
        <path
           d="m 2.140625,0 c 0,0 -1.15625,0 -1.15625,0 0,0 0,-7.34375 0,-7.34375 0,0 1.15625,0 1.15625,0 z m 0.15625,-8.4375 c 0,0 -1.453125,0 -1.453125,0 0,0 0,-1.453125 0,-1.453125 0,0 1.453125,0 1.453125,0 z m 0,0"
           id="path5" />
      </g>
      <g
         id="glyph-0-6-f0c744e6">
        <path
           d="m 10.640625,0 c 0,0 -1.15625,0 -1.15625,0 0,0 0,-5.046875 0,-5.046875 0,-0.9375 -0.5,-1.484375 -1.34375,-1.484375 -0.953125,0 -1.75,0.859375 -1.75,1.921875 0,0 0,4.609375 0,4.609375 0,0 -1.15625,0 -1.15625,0 0,0 0,-5.046875 0,-5.046875 0,-0.9375 -0.484375,-1.484375 -1.359375,-1.484375 -0.953125,0 -1.71875,0.859375 -1.71875,1.921875 0,0 0,4.609375 0,4.609375 C 2.15625,0 1,0 1,0 c 0,0 0,-7.34375 0,-7.34375 0,0 1.0625,0 1.0625,0 0,0 0,1.046875 0,1.046875 0.625,-0.890625 1.265625,-1.25 2.25,-1.25 0.953125,0 1.546875,0.34375 1.96875,1.125 0.6875,-0.828125 1.28125,-1.125 2.265625,-1.125 1.359375,0 2.09375,0.734375 2.09375,2.046875 z m 0,0"
           id="path6" />
      </g>
      <g
         id="glyph-0-7-f0c744e6">
        <path
           d="m 6.75,0 c 0,0 -1.046875,0 -1.046875,0 0,0 0,-1.140625 0,-1.140625 -0.6875,0.96875 -1.375,1.34375 -2.453125,1.34375 -1.4375,0 -2.34375,-0.78125 -2.34375,-2 0,0 0,-5.546875 0,-5.546875 0,0 1.171875,0 1.171875,0 0,0 0,5.09375 0,5.09375 0,0.875 0.578125,1.4375 1.5,1.4375 1.21875,0 2.015625,-0.984375 2.015625,-2.484375 0,0 0,-4.046875 0,-4.046875 0,0 1.15625,0 1.15625,0 z m 0,0"
           id="path7" />
      </g>
      <g
         id="glyph-0-8-f0c744e6">
        <path
           d="M 7.484375,-0.03125 C 7.109375,0.0625 6.9375,0.09375 6.6875,0.09375 6.125,0.09375 5.609375,-0.3125 5.484375,-0.875 4.84375,-0.1875 3.9375,0.203125 3,0.203125 c -1.484375,0 -2.40625,-0.78125 -2.40625,-2.109375 0,-0.890625 0.421875,-1.546875 1.28125,-1.90625 0.453125,-0.171875 0.703125,-0.234375 2.359375,-0.4375 0.921875,-0.125 1.21875,-0.328125 1.21875,-0.8125 0,0 0,-0.3125 0,-0.3125 0,-0.703125 -0.59375,-1.09375 -1.640625,-1.09375 -1.09375,0 -1.625,0.40625 -1.71875,1.296875 0,0 -1.1875,0 -1.1875,0 0.078125,-1.6875 1.171875,-2.375 2.9375,-2.375 1.8125,0 2.765625,0.703125 2.765625,2 0,0 0,4.09375 0,4.09375 0,0.359375 0.21875,0.578125 0.625,0.578125 0.078125,0 0.125,0 0.25,-0.03125 z m -2.03125,-2.5 c 0,0 0,-1.09375 0,-1.09375 -0.40625,0.1875 -0.65625,0.234375 -1.890625,0.40625 -1.234375,0.1875 -1.75,0.515625 -1.75,1.28125 0,0.796875 0.53125,1.125 1.4375,1.125 1.125,0 2.203125,-0.671875 2.203125,-1.71875 z m 0,0"
           id="path8" />
      </g>
      <g
         id="glyph-0-9-f0c744e6">
        <path
           d="M 3.5625,0 C 3.15625,0.0625 2.890625,0.09375 2.609375,0.09375 1.6875,0.09375 1.1875,-0.328125 1.1875,-1.0625 c 0,0 0,-5.328125 0,-5.328125 0,0 -0.984375,0 -0.984375,0 0,0 0,-0.953125 0,-0.953125 0,0 0.984375,0 0.984375,0 0,0 0,-2.015625 0,-2.015625 0,0 1.171875,0 1.171875,0 0,0 0,2.015625 0,2.015625 0,0 1.203125,0 1.203125,0 0,0 0,0.953125 0,0.953125 0,0 -1.203125,0 -1.203125,0 0,0 0,4.8125 0,4.8125 0,0.515625 0.125,0.65625 0.640625,0.65625 0.21875,0 0.40625,-0.015625 0.5625,-0.0625 z m 0,0"
           id="path9" />
      </g>
      <g
         id="glyph-0-10-f0c744e6">
        <path
           d="m 6.9375,0 c 0,0 -1.046875,0 -1.046875,0 0,0 0,-1.078125 0,-1.078125 -0.625,0.90625 -1.328125,1.28125 -2.328125,1.28125 -1.984375,0 -3.203125,-1.46875 -3.203125,-3.9375 0,-2.34375 1.25,-3.8125 3.15625,-3.8125 0.984375,0 1.765625,0.390625 2.25,1.140625 0,0 0,-3.796875 0,-3.796875 0,0 1.171875,0 1.171875,0 z M 5.765625,-3.640625 c 0,-1.6875 -0.796875,-2.8125 -2.0625,-2.8125 -1.265625,0 -2.125,1.078125 -2.125,2.78125 0,1.71875 0.859375,2.796875 2.140625,2.796875 1.234375,0 2.046875,-1.078125 2.046875,-2.765625 z m 0,0"
           id="path10" />
      </g>
      <g
         id="glyph-0-11-f0c744e6">
        <path
           d="m 4.859375,0 c 0,0 -1.234375,0 -1.234375,0 0,0 0,-7.0625 0,-7.0625 0,0 -2.203125,0 -2.203125,0 0,0 0,-0.890625 0,-0.890625 1.90625,-0.234375 2.1875,-0.453125 2.625,-1.96875 0,0 0.8125,0 0.8125,0 z m 0,0"
           id="path11" />
      </g>
      <g
         id="glyph-0-12-f0c744e6">
        <path
           d="m 7.09375,-4.78125 c 0,3.265625 -1.140625,4.984375 -3.25,4.984375 -2.125,0 -3.234375,-1.71875 -3.234375,-5.0625 0,-3.328125 1.09375,-5.0625 3.234375,-5.0625 2.15625,0 3.25,1.703125 3.25,5.140625 z m -1.25,-0.109375 c 0,-2.65625 -0.65625,-3.9375 -2,-3.9375 -1.328125,0 -1.984375,1.265625 -1.984375,3.984375 0,2.71875 0.65625,4.03125 1.96875,4.03125 1.359375,0 2.015625,-1.265625 2.015625,-4.078125 z m 0,0"
           id="path12" />
      </g>
      <g
         id="glyph-0-13-f0c744e6">
        <path
           d="m 4.234375,-6.171875 c 0,1 -0.734375,1.65625 -1.890625,1.65625 -1.203125,0 -1.875,-0.640625 -1.875,-1.75 0,0 0.78125,0 0.78125,0 0.03125,0.765625 0.375,1.09375 1.109375,1.09375 0.6875,0 1.109375,-0.375 1.109375,-1 0,-0.765625 -0.5,-0.890625 -1.515625,-0.890625 0,0 0,-0.625 0,-0.625 1.046875,0 1.34375,-0.171875 1.34375,-0.734375 0,-0.53125 -0.359375,-0.84375 -0.9375,-0.84375 -0.671875,0 -1,0.296875 -1,1.09375 0,0 -0.765625,0 -0.765625,0 0.015625,-1.171875 0.625,-1.75 1.765625,-1.75 1.0625,0 1.71875,0.5625 1.71875,1.484375 0,0.46875 -0.25,0.828125 -0.703125,1.03125 0.59375,0.203125 0.859375,0.609375 0.859375,1.234375 z m 0,0"
           id="path13" />
      </g>
      <g
         id="glyph-0-14-f0c744e6">
        <path
           d="m 2.953125,-4.6875 c 0,0 -0.75,0 -0.75,0 0,0 0,-3.640625 0,-3.640625 0,0 -1.21875,0 -1.21875,0 0,0 0,-0.578125 0,-0.578125 0,0 0.171875,-0.015625 0.171875,-0.015625 0.890625,-0.046875 1.0625,-0.234375 1.28125,-1 0,0 0.515625,0 0.515625,0 z m 0,0"
           id="path14" />
      </g>
      <g
         id="glyph-0-15-f0c744e6">
        <path
           d="m 4.1875,-8.375 c 0,0.65625 -0.421875,1.1875 -1.1875,1.578125 0,0 -0.78125,0.40625 -0.78125,0.40625 -0.53125,0.265625 -0.75,0.53125 -0.890625,0.984375 0,0 2.8125,0 2.8125,0 0,0 0,0.71875 0,0.71875 0,0 -3.734375,0 -3.734375,0 0.0625,-1.1875 0.375,-1.6875 1.546875,-2.296875 0,0 0.734375,-0.390625 0.734375,-0.390625 0.46875,-0.25 0.71875,-0.59375 0.71875,-0.96875 0,-0.53125 -0.453125,-0.921875 -1.046875,-0.921875 -0.65625,0 -1.015625,0.3125 -1.078125,1.21875 0,0 -0.75,0 -0.75,0 0.03125,-1.28125 0.625,-1.875 1.84375,-1.875 1.0625,0 1.8125,0.640625 1.8125,1.546875 z m 0,0"
           id="path15" />
      </g>
      <g
         id="glyph-0-16-f0c744e6">
        <path
           d="m 8.6875,-2.796875 c 0,1.8125 -1.390625,3.046875 -3.984375,3.046875 -2.40625,0 -4.03125,-1.15625 -4.03125,-3.5625 0,0 1.234375,0 1.234375,0 0,1.453125 0.953125,2.421875 2.875,2.421875 1.765625,0 2.609375,-0.65625 2.609375,-1.78125 0,-0.796875 -0.59375,-1.3125 -1.875,-1.65625 0,0 -2.53125,-0.671875 -2.53125,-0.671875 -1.34375,-0.34375 -2,-1.125 -2,-2.375 0,-1.84375 1.375,-3.078125 3.625,-3.078125 2.34375,0 3.734375,1.15625 3.734375,3.15625 0,0 -1.234375,0 -1.234375,0 0,-1.328125 -0.921875,-2.0625 -2.546875,-2.0625 -1.375,0 -2.28125,0.765625 -2.28125,1.796875 0,0.78125 0.453125,1.1875 1.6875,1.515625 0,0 2.5625,0.6875 2.5625,0.6875 1.375,0.375 2.15625,1.296875 2.15625,2.5625 z m 0,0"
           id="path16" />
      </g>
      <g
         id="glyph-0-17-f0c744e6">
        <path
           d="m 4.5,-6.3125 c -1.8125,0.03125 -2.359375,0.859375 -2.359375,2.5 0,0 0,3.8125 0,3.8125 0,0 -1.15625,0 -1.15625,0 0,0 0,-7.34375 0,-7.34375 0,0 1.0625,0 1.0625,0 0,0 0,1.34375 0,1.34375 0.671875,-1.09375 1.25,-1.546875 2,-1.546875 0.15625,0 0.25,0.015625 0.453125,0.046875 z m 0,0"
           id="path17" />
      </g>
      <g
         id="glyph-0-18-f0c744e6">
        <path
           d="m 4.078125,2.96875 c 0,0 -0.78125,0 -0.78125,0 -1.390625,-1.828125 -2.28125,-4.375 -2.28125,-6.59375 0,-2.203125 0.890625,-4.75 2.28125,-6.578125 0,0 0.78125,0 0.78125,0 C 2.84375,-8.21875 2.15625,-5.859375 2.15625,-3.625 c 0,2.234375 0.6875,4.59375 1.921875,6.59375 z m 0,0"
           id="path18" />
      </g>
      <g
         id="glyph-0-19-f0c744e6">
        <path
           d="m 7.46875,0 c 0,0 -6.34375,0 -6.34375,0 0,0 0,-10.203125 0,-10.203125 0,0 1.296875,0 1.296875,0 0,0 0,9.0625 0,9.0625 0,0 5.046875,0 5.046875,0 z m 0,0"
           id="path19" />
      </g>
      <g
         id="glyph-0-20-f0c744e6">
        <path
           d="m 7.21875,-4.296875 c 0,0 -6.265625,0 -6.265625,0 0,0 0,-0.953125 0,-0.953125 0,0 6.265625,0 6.265625,0 z m 0,2.546875 c 0,0 -6.265625,0 -6.265625,0 0,0 0,-0.953125 0,-0.953125 0,0 6.265625,0 6.265625,0 z m 0,0"
           id="path20" />
      </g>
      <g
         id="glyph-0-21-f0c744e6">
        <path
           d="m 3.578125,-3.609375 c 0,2.203125 -0.875,4.75 -2.28125,6.578125 0,0 -0.765625,0 -0.765625,0 1.234375,-1.984375 1.921875,-4.359375 1.921875,-6.578125 0,-2.25 -0.6875,-4.59375 -1.921875,-6.59375 0,0 0.765625,0 0.765625,0 1.40625,1.828125 2.28125,4.375 2.28125,6.59375 z m 0,0"
           id="path21" />
      </g>
      <g
         id="glyph-0-22-f0c744e6">
        <path
           d="M 6.671875,-2.515625 C 6.53125,-0.84375 5.4375,0.203125 3.6875,0.203125 c -2,0 -3.25,-1.4375 -3.25,-3.796875 0,-2.4375 1.28125,-3.953125 3.265625,-3.953125 1.625,0 2.75,0.890625 2.890625,2.671875 0,0 -1.171875,0 -1.171875,0 C 5.28125,-5.890625 4.65625,-6.46875 3.6875,-6.46875 c -1.28125,0 -2.03125,1.03125 -2.03125,2.875 0,1.734375 0.765625,2.71875 2.046875,2.71875 1,0 1.609375,-0.46875 1.796875,-1.640625 z m 0,0"
           id="path22" />
      </g>
      <g
         id="glyph-1-0-f0c744e6">
        <path
           d="m 2.96875,-7.75 c -0.398438,0 -0.710938,0.121094 -0.9375,0.359375 -0.242188,0.242187 -0.359375,0.570313 -0.359375,0.984375 0,0.40625 0.117187,0.730469 0.359375,0.96875 0.226562,0.242188 0.539062,0.359375 0.9375,0.359375 0.394531,0 0.710938,-0.117187 0.953125,-0.359375 0.226563,-0.238281 0.34375,-0.5625 0.34375,-0.96875 0,-0.414062 -0.117187,-0.742188 -0.34375,-0.984375 C 3.679688,-7.628906 3.363281,-7.75 2.96875,-7.75 Z m 1.765625,-2.421875 V -9.46875 C 4.515625,-9.550781 4.289062,-9.617188 4.0625,-9.671875 c -0.230469,-0.039063 -0.453125,-0.0625 -0.671875,-0.0625 -0.585937,0 -1.03125,0.167969 -1.34375,0.5 -0.3125,0.355469 -0.492187,0.882813 -0.53125,1.578125 0.164063,-0.226562 0.378906,-0.398438 0.640625,-0.515625 0.269531,-0.125 0.554688,-0.1875 0.859375,-0.1875 0.664063,0 1.191406,0.179687 1.578125,0.53125 0.375,0.34375 0.5625,0.820313 0.5625,1.421875 0,0.585938 -0.199219,1.054688 -0.59375,1.40625 -0.398438,0.355469 -0.929688,0.53125 -1.59375,0.53125 -0.761719,0 -1.34375,-0.25 -1.75,-0.75 C 0.820312,-5.726562 0.625,-6.46875 0.625,-7.4375 c 0,-0.894531 0.25,-1.609375 0.75,-2.140625 0.488281,-0.539063 1.144531,-0.8125 1.96875,-0.8125 0.226562,0 0.457031,0.01563 0.6875,0.04687 0.226562,0.04297 0.460938,0.101562 0.703125,0.171875 z m 0,0"
           id="path23" />
      </g>
      <g
         id="glyph-1-1-f0c744e6">
        <path
           d="m 0.984375,-4.6875 v -0.703125 c 0.226563,0.09375 0.457031,0.164063 0.6875,0.203125 0.226563,0.054688 0.453125,0.078125 0.671875,0.078125 0.582031,0 1.03125,-0.171875 1.34375,-0.515625 0.300781,-0.34375 0.476562,-0.863281 0.53125,-1.5625 -0.167969,0.210938 -0.386719,0.375 -0.65625,0.5 -0.261719,0.117188 -0.546875,0.171875 -0.859375,0.171875 -0.65625,0 -1.179687,-0.171875 -1.5625,-0.515625 C 0.753906,-7.375 0.5625,-7.847656 0.5625,-8.453125 c 0,-0.582031 0.195312,-1.050781 0.59375,-1.40625 0.40625,-0.351563 0.9375,-0.53125 1.59375,-0.53125 0.757812,0 1.335938,0.257813 1.734375,0.765625 0.40625,0.5 0.609375,1.234375 0.609375,2.203125 0,0.898437 -0.246094,1.617187 -0.734375,2.15625 C 3.867188,-4.734375 3.207031,-4.46875 2.375,-4.46875 2.15625,-4.46875 1.929688,-4.484375 1.703125,-4.515625 1.472656,-4.554688 1.234375,-4.613281 0.984375,-4.6875 Z M 2.75,-7.109375 c 0.40625,0 0.722656,-0.117187 0.953125,-0.359375 0.226563,-0.238281 0.34375,-0.566406 0.34375,-0.984375 0,-0.40625 -0.117187,-0.726563 -0.34375,-0.96875 C 3.472656,-9.660156 3.15625,-9.78125 2.75,-9.78125 c -0.386719,0 -0.699219,0.121094 -0.9375,0.359375 -0.242188,0.242187 -0.359375,0.5625 -0.359375,0.96875 0,0.417969 0.117187,0.746094 0.359375,0.984375 0.226562,0.242188 0.539062,0.359375 0.9375,0.359375 z m 0,0"
           id="path24" />
      </g>
      <g
         id="glyph-2-0-f0c744e6">
        <path
           d="m 0,-9.5 c 0,0 0,1.578125 0,1.578125 -0.421875,0.1875 -1.03125,0.3125 -1.671875,0.296875 0,0 -0.90625,-0.015625 -0.90625,-0.015625 -1.265625,-0.015625 -1.8125,0.53125 -1.8125,1.671875 0,0 0,3.359375 0,3.359375 0,0 4.390625,0 4.390625,0 0,0 0,1.3125 0,1.3125 0,0 -10.203125,0 -10.203125,0 0,0 0,-4.703125 0,-4.703125 0,-2.015625 0.96875,-3.109375 2.734375,-3.109375 1.15625,0 1.875,0.453125 2.421875,1.609375 C -4.5625,-8.609375 -4.0625,-8.859375 -2.375,-8.890625 -1.015625,-8.90625 -0.65625,-9.015625 -0.328125,-9.5 Z m -7.296875,1.75 c -1.140625,0 -1.765625,0.546875 -1.765625,2 0,0 0,3.140625 0,3.140625 0,0 3.515625,0 3.515625,0 0,0 0,-3.140625 0,-3.140625 0,-1.390625 -0.546875,-2 -1.75,-2 z m 0,0"
           id="path25" />
      </g>
      <g
         id="glyph-3-0-f0c744e6">
        <path
           d="m -3.328125,-7.1875 c 0,0 0,5.40625 0,5.40625 C -1.65625,-1.8125 -0.875,-2.71875 -0.875,-3.9375 c 0,-0.9375 -0.390625,-1.59375 -1.34375,-1.921875 0,0 0,-1.171875 0,-1.171875 1.484375,0.296875 2.421875,1.453125 2.421875,3.140625 0,2.0625 -1.421875,3.328125 -3.828125,3.328125 -2.40625,0 -3.921875,-1.3125 -3.921875,-3.359375 0,-1.375 0.734375,-2.484375 1.9375,-2.96875 0.546875,-0.203125 1.21875,-0.296875 2.28125,-0.296875 z m -1.046875,1.25 c -1.140625,0 -2.09375,0.890625 -2.09375,2.03125 0,1.171875 0.875,2 2.1875,2.09375 0,0 0,-4.109375 0,-4.109375 C -4.3125,-5.9375 -4.375,-5.9375 -4.375,-5.9375 Z m 0,0"
           id="path26" />
      </g>
      <g
         id="glyph-4-0-f0c744e6">
        <path
           d="m 0,-2.109375 c 0,0 0,1.15625 0,1.15625 0,0 -10.203125,0 -10.203125,0 0,0 0,-1.15625 0,-1.15625 z m 0,0"
           id="path27" />
      </g>
      <g
         id="glyph-5-0-f0c744e6">
        <path
           d="m 0,-2.671875 c 0,0 0,1.453125 0,1.453125 0,0 -1.453125,0 -1.453125,0 0,0 0,-1.453125 0,-1.453125 z m 0,0"
           id="path28" />
      </g>
      <g
         id="glyph-6-0-f0c744e6" />
      <g
         id="glyph-7-0-f0c744e6">
        <path
           d="m -3.328125,-7.1875 c 0,0 0,5.40625 0,5.40625 C -1.65625,-1.8125 -0.875,-2.71875 -0.875,-3.9375 c 0,-0.9375 -0.390625,-1.59375 -1.34375,-1.921875 0,0 0,-1.171875 0,-1.171875 1.484375,0.296875 2.421875,1.453125 2.421875,3.140625 0,2.0625 -1.421875,3.328125 -3.828125,3.328125 -2.40625,0 -3.921875,-1.3125 -3.921875,-3.359375 0,-1.375 0.734375,-2.484375 1.9375,-2.96875 0.546875,-0.203125 1.21875,-0.296875 2.28125,-0.296875 z m -1.046875,1.25 c -1.140625,0 -2.09375,0.890625 -2.09375,2.03125 0,1.171875 0.875,2 2.1875,2.09375 0,0 0,-4.109375 0,-4.109375 C -4.3125,-5.9375 -4.375,-5.9375 -4.375,-5.9375 Z m 0,0"
           id="path29" />
      </g>
      <g
         id="glyph-8-0-f0c744e6">
        <path
           d="m -6.3125,-4.5 c 0.03125,1.8125 0.859375,2.359375 2.5,2.359375 0,0 3.8125,0 3.8125,0 0,0 0,1.15625 0,1.15625 0,0 -7.34375,0 -7.34375,0 0,0 0,-1.0625 0,-1.0625 0,0 1.34375,0 1.34375,0 -1.09375,-0.671875 -1.546875,-1.25 -1.546875,-2 0,-0.15625 0.015625,-0.25 0.046875,-0.453125 z m 0,0"
           id="path30" />
      </g>
      <g
         id="glyph-9-0-f0c744e6">
        <path
           d="m -6.3125,-4.5 c 0.03125,1.8125 0.859375,2.359375 2.5,2.359375 0,0 3.8125,0 3.8125,0 0,0 0,1.15625 0,1.15625 0,0 -7.34375,0 -7.34375,0 0,0 0,-1.0625 0,-1.0625 0,0 1.34375,0 1.34375,0 -1.09375,-0.671875 -1.546875,-1.25 -1.546875,-2 0,-0.15625 0.015625,-0.25 0.046875,-0.453125 z m 0,0"
           id="path31" />
      </g>
      <g
         id="glyph-10-0-f0c744e6">
        <path
           d="m -3.609375,-7.140625 c 2.40625,0 3.8125,1.265625 3.8125,3.3125 0,2.09375 -1.40625,3.328125 -3.875,3.328125 -2.453125,0 -3.875,-1.25 -3.875,-3.3125 0,-2.109375 1.40625,-3.328125 3.9375,-3.328125 z M -3.625,-5.921875 c -1.828125,0 -2.84375,0.78125 -2.84375,2.09375 0,1.3125 1.03125,2.109375 2.796875,2.109375 1.78125,0 2.796875,-0.796875 2.796875,-2.109375 0,-1.28125 -1.03125,-2.09375 -2.75,-2.09375 z m 0,0"
           id="path32" />
      </g>
      <g
         id="glyph-11-0-f0c744e6">
        <path
           d="m -6.3125,-4.5 c 0.03125,1.8125 0.859375,2.359375 2.5,2.359375 0,0 3.8125,0 3.8125,0 0,0 0,1.15625 0,1.15625 0,0 -7.34375,0 -7.34375,0 0,0 0,-1.0625 0,-1.0625 0,0 1.34375,0 1.34375,0 -1.09375,-0.671875 -1.546875,-1.25 -1.546875,-2 0,-0.15625 0.015625,-0.25 0.046875,-0.453125 z m 0,0"
           id="path33" />
      </g>
      <g
         id="glyph-12-0-f0c744e6">
        <path
           d="m 4.859375,0 c 0,0 -1.234375,0 -1.234375,0 0,0 0,-7.0625 0,-7.0625 0,0 -2.203125,0 -2.203125,0 0,0 0,-0.890625 0,-0.890625 1.90625,-0.234375 2.1875,-0.453125 2.625,-1.96875 0,0 0.8125,0 0.8125,0 z m 0,0"
           id="path34" />
      </g>
      <g
         id="glyph-13-0-f0c744e6">
        <path
           d="m 0.9375,-7.34375 h 5.515625 v 0.640625 H 0.9375 Z m 0,0"
           id="path35" />
      </g>
      <g
         id="glyph-14-0-f0c744e6">
        <path
           d="m 2.140625,0 c 0,0 -1.15625,0 -1.15625,0 0,0 0,-7.34375 0,-7.34375 0,0 1.15625,0 1.15625,0 z m 0.15625,-8.4375 c 0,0 -1.453125,0 -1.453125,0 0,0 0,-1.453125 0,-1.453125 0,0 1.453125,0 1.453125,0 z m 0,0"
           id="path36" />
      </g>
      <g
         id="glyph-14-1-f0c744e6">
        <path
           d="M 6.671875,-2.515625 C 6.53125,-0.84375 5.4375,0.203125 3.6875,0.203125 c -2,0 -3.25,-1.4375 -3.25,-3.796875 0,-2.4375 1.28125,-3.953125 3.265625,-3.953125 1.625,0 2.75,0.890625 2.890625,2.671875 0,0 -1.171875,0 -1.171875,0 C 5.28125,-5.890625 4.65625,-6.46875 3.6875,-6.46875 c -1.28125,0 -2.03125,1.03125 -2.03125,2.875 0,1.734375 0.765625,2.71875 2.046875,2.71875 1,0 1.609375,-0.46875 1.796875,-1.640625 z m 0,0"
           id="path37" />
      </g>
      <g
         id="glyph-14-2-f0c744e6">
        <path
           d="M 3.5625,0 C 3.15625,0.0625 2.890625,0.09375 2.609375,0.09375 1.6875,0.09375 1.1875,-0.328125 1.1875,-1.0625 c 0,0 0,-5.328125 0,-5.328125 0,0 -0.984375,0 -0.984375,0 0,0 0,-0.953125 0,-0.953125 0,0 0.984375,0 0.984375,0 0,0 0,-2.015625 0,-2.015625 0,0 1.171875,0 1.171875,0 0,0 0,2.015625 0,2.015625 0,0 1.203125,0 1.203125,0 0,0 0,0.953125 0,0.953125 0,0 -1.203125,0 -1.203125,0 0,0 0,4.8125 0,4.8125 0,0.515625 0.125,0.65625 0.640625,0.65625 0.21875,0 0.40625,-0.015625 0.5625,-0.0625 z m 0,0"
           id="path38" />
      </g>
      <g
         id="glyph-15-0-f0c744e6">
        <path
           d="m 8.6875,-2.796875 c 0,1.8125 -1.390625,3.046875 -3.984375,3.046875 -2.40625,0 -4.03125,-1.15625 -4.03125,-3.5625 0,0 1.234375,0 1.234375,0 0,1.453125 0.953125,2.421875 2.875,2.421875 1.765625,0 2.609375,-0.65625 2.609375,-1.78125 0,-0.796875 -0.59375,-1.3125 -1.875,-1.65625 0,0 -2.53125,-0.671875 -2.53125,-0.671875 -1.34375,-0.34375 -2,-1.125 -2,-2.375 0,-1.84375 1.375,-3.078125 3.625,-3.078125 2.34375,0 3.734375,1.15625 3.734375,3.15625 0,0 -1.234375,0 -1.234375,0 0,-1.328125 -0.921875,-2.0625 -2.546875,-2.0625 -1.375,0 -2.28125,0.765625 -2.28125,1.796875 0,0.78125 0.453125,1.1875 1.6875,1.515625 0,0 2.5625,0.6875 2.5625,0.6875 1.375,0.375 2.15625,1.296875 2.15625,2.5625 z m 0,0"
           id="path39" />
      </g>
      <g
         id="glyph-15-1-f0c744e6">
        <path
           d="M 3.5625,0 C 3.15625,0.0625 2.890625,0.09375 2.609375,0.09375 1.6875,0.09375 1.1875,-0.328125 1.1875,-1.0625 c 0,0 0,-5.328125 0,-5.328125 0,0 -0.984375,0 -0.984375,0 0,0 0,-0.953125 0,-0.953125 0,0 0.984375,0 0.984375,0 0,0 0,-2.015625 0,-2.015625 0,0 1.171875,0 1.171875,0 0,0 0,2.015625 0,2.015625 0,0 1.203125,0 1.203125,0 0,0 0,0.953125 0,0.953125 0,0 -1.203125,0 -1.203125,0 0,0 0,4.8125 0,4.8125 0,0.515625 0.125,0.65625 0.640625,0.65625 0.21875,0 0.40625,-0.015625 0.5625,-0.0625 z m 0,0"
           id="path40" />
      </g>
      <g
         id="glyph-15-2-f0c744e6">
        <path
           d="m 4.5,-6.3125 c -1.8125,0.03125 -2.359375,0.859375 -2.359375,2.5 0,0 0,3.8125 0,3.8125 0,0 -1.15625,0 -1.15625,0 0,0 0,-7.34375 0,-7.34375 0,0 1.0625,0 1.0625,0 0,0 0,1.34375 0,1.34375 0.671875,-1.09375 1.25,-1.546875 2,-1.546875 0.15625,0 0.25,0.015625 0.453125,0.046875 z m 0,0"
           id="path41" />
      </g>
      <g
         id="glyph-15-3-f0c744e6">
        <path
           d="m 2.140625,0 c 0,0 -1.15625,0 -1.15625,0 0,0 0,-7.34375 0,-7.34375 0,0 1.15625,0 1.15625,0 z m 0.15625,-8.4375 c 0,0 -1.453125,0 -1.453125,0 0,0 0,-1.453125 0,-1.453125 0,0 1.453125,0 1.453125,0 z m 0,0"
           id="path42" />
      </g>
      <g
         id="glyph-15-4-f0c744e6">
        <path
           d="M 6.671875,-2.515625 C 6.53125,-0.84375 5.4375,0.203125 3.6875,0.203125 c -2,0 -3.25,-1.4375 -3.25,-3.796875 0,-2.4375 1.28125,-3.953125 3.265625,-3.953125 1.625,0 2.75,0.890625 2.890625,2.671875 0,0 -1.171875,0 -1.171875,0 C 5.28125,-5.890625 4.65625,-6.46875 3.6875,-6.46875 c -1.28125,0 -2.03125,1.03125 -2.03125,2.875 0,1.734375 0.765625,2.71875 2.046875,2.71875 1,0 1.609375,-0.46875 1.796875,-1.640625 z m 0,0"
           id="path43" />
      </g>
      <g
         id="glyph-15-5-f0c744e6">
        <path
           d="m 4.078125,2.96875 c 0,0 -0.78125,0 -0.78125,0 -1.390625,-1.828125 -2.28125,-4.375 -2.28125,-6.59375 0,-2.203125 0.890625,-4.75 2.28125,-6.578125 0,0 0.78125,0 0.78125,0 C 2.84375,-8.21875 2.15625,-5.859375 2.15625,-3.625 c 0,2.234375 0.6875,4.59375 1.921875,6.59375 z m 0,0"
           id="path44" />
      </g>
      <g
         id="glyph-15-6-f0c744e6">
        <path
           d="m 7.46875,0 c 0,0 -6.34375,0 -6.34375,0 0,0 0,-10.203125 0,-10.203125 0,0 1.296875,0 1.296875,0 0,0 0,9.0625 0,9.0625 0,0 5.046875,0 5.046875,0 z m 0,0"
           id="path45" />
      </g>
      <g
         id="glyph-15-7-f0c744e6" />
      <g
         id="glyph-15-8-f0c744e6">
        <path
           d="m 7.21875,-4.296875 c 0,0 -6.265625,0 -6.265625,0 0,0 0,-0.953125 0,-0.953125 0,0 6.265625,0 6.265625,0 z m 0,2.546875 c 0,0 -6.265625,0 -6.265625,0 0,0 0,-0.953125 0,-0.953125 0,0 6.265625,0 6.265625,0 z m 0,0"
           id="path46" />
      </g>
      <g
         id="glyph-15-9-f0c744e6">
        <path
           d="m 4.859375,0 c 0,0 -1.234375,0 -1.234375,0 0,0 0,-7.0625 0,-7.0625 0,0 -2.203125,0 -2.203125,0 0,0 0,-0.890625 0,-0.890625 1.90625,-0.234375 2.1875,-0.453125 2.625,-1.96875 0,0 0.8125,0 0.8125,0 z m 0,0"
           id="path47" />
      </g>
      <g
         id="glyph-15-10-f0c744e6">
        <path
           d="m 7.09375,-4.78125 c 0,3.265625 -1.140625,4.984375 -3.25,4.984375 -2.125,0 -3.234375,-1.71875 -3.234375,-5.0625 0,-3.328125 1.09375,-5.0625 3.234375,-5.0625 2.15625,0 3.25,1.703125 3.25,5.140625 z m -1.25,-0.109375 c 0,-2.65625 -0.65625,-3.9375 -2,-3.9375 -1.328125,0 -1.984375,1.265625 -1.984375,3.984375 0,2.71875 0.65625,4.03125 1.96875,4.03125 1.359375,0 2.015625,-1.265625 2.015625,-4.078125 z m 0,0"
           id="path48" />
      </g>
      <g
         id="glyph-15-11-f0c744e6">
        <path
           d="m 3.578125,-3.609375 c 0,2.203125 -0.875,4.75 -2.28125,6.578125 0,0 -0.765625,0 -0.765625,0 1.234375,-1.984375 1.921875,-4.359375 1.921875,-6.578125 0,-2.25 -0.6875,-4.59375 -1.921875,-6.59375 0,0 0.765625,0 0.765625,0 1.40625,1.828125 2.28125,4.375 2.28125,6.59375 z m 0,0"
           id="path49" />
      </g>
    </g>
  </defs>
  <path
     fill-rule="nonzero"
     fill="#ffffff"
     fill-opacity="1"
     d="M 55.874779,129.81887 H 414.87478 V 4.8188705 H 55.874779 Z m 0,0"
     id="path50" />
  <path
     fill="none"
     stroke-width="1"
     stroke-linecap="butt"
     stroke-linejoin="miter"
     stroke="#000000"
     stroke-opacity="0.12"
     stroke-miterlimit="1.1547"
     d="M 61.656029,129.81887 V 4.8188705"
     id="path51" />
  <path
     fill="none"
     stroke-width="1"
     stroke-linecap="butt"
     stroke-linejoin="miter"
     stroke="#000000"
     stroke-opacity="0.12"
     stroke-miterlimit="1.1547"
     d="M 159.77712,129.81887 V 4.8188705"
     id="path52" />
  <path
     fill="none"
     stroke-width="1"
     stroke-linecap="butt"
     stroke-linejoin="miter"
     stroke="#000000"
     stroke-opacity="0.12"
     stroke-miterlimit="1.1547"
     d="M 257.89822,129.81887 V 4.8188705"
     id="path53" />
  <path
     fill="none"
     stroke-width="1"
     stroke-linecap="butt"
     stroke-linejoin="miter"
     stroke="#000000"
     stroke-opacity="0.12"
     stroke-miterlimit="1.1547"
     d="M 356.01931,129.81887 V 4.8188705"
     id="path54" />
  <path
     fill="none"
     stroke-width="1"
     stroke-linecap="butt"
     stroke-linejoin="miter"
     stroke="#000000"
     stroke-opacity="0.12"
     stroke-miterlimit="1.1547"
     d="M 55.874779,4.8188705 H 414.87478"
     id="path55" />
  <path
     fill="none"
     stroke-width="1"
     stroke-linecap="butt"
     stroke-linejoin="miter"
     stroke="#000000"
     stroke-opacity="0.12"
     stroke-miterlimit="1.1547"
     d="M 55.874779,40.670433 H 414.87478"
     id="path56" />
  <path
     fill="none"
     stroke-width="1"
     stroke-linecap="butt"
     stroke-linejoin="miter"
     stroke="#000000"
     stroke-opacity="0.12"
     stroke-miterlimit="1.1547"
     d="M 55.874779,76.521996 H 414.87478"
     id="path57" />
  <path
     fill="none"
     stroke-width="1"
     stroke-linecap="butt"
     stroke-linejoin="miter"
     stroke="#000000"
     stroke-opacity="0.12"
     stroke-miterlimit="1.1547"
     d="M 55.874779,112.37356 H 414.87478"
     id="path58" />
  <g
     fill="#000000"
     fill-opacity="1"
     id="g58"
     transform="translate(-18.125221,-11.181129)">
    <use
       xlink:href="#glyph-0-0-f0c744e6"
       x="206.04701"
       y="181.81776"
       id="use58" />
  </g>
  <g
     fill="#000000"
     fill-opacity="1"
     id="g59"
     transform="translate(-18.125221,-11.181129)">
    <use
       xlink:href="#glyph-0-1-f0c744e6"
       x="216.15501"
       y="181.81776"
       id="use59" />
  </g>
  <g
     fill="#000000"
     fill-opacity="1"
     id="g60"
     transform="translate(-18.125221,-11.181129)">
    <use
       xlink:href="#glyph-0-2-f0c744e6"
       x="223.93901"
       y="181.81776"
       id="use60" />
  </g>
  <g
     fill="#000000"
     fill-opacity="1"
     id="g61"
     transform="translate(-18.125221,-11.181129)">
    <use
       xlink:href="#glyph-0-2-f0c744e6"
       x="227.04701"
       y="181.81776"
       id="use61" />
  </g>
  <g
     fill="#000000"
     fill-opacity="1"
     id="g62"
     transform="translate(-18.125221,-11.181129)">
    <use
       xlink:href="#glyph-0-3-f0c744e6"
       x="230.15501"
       y="181.81776"
       id="use62" />
  </g>
  <g
     fill="#000000"
     fill-opacity="1"
     id="g63"
     transform="translate(-18.125221,-11.181129)">
    <use
       xlink:href="#glyph-0-4-f0c744e6"
       x="237.15501"
       y="181.81776"
       id="use63" />
  </g>
  <g
     fill="#000000"
     fill-opacity="1"
     id="g64"
     transform="translate(-18.125221,-11.181129)">
    <use
       xlink:href="#glyph-0-3-f0c744e6"
       x="241.04701"
       y="181.81776"
       id="use64" />
  </g>
  <g
     fill="#000000"
     fill-opacity="1"
     id="g65"
     transform="translate(-18.125221,-11.181129)">
    <use
       xlink:href="#glyph-0-5-f0c744e6"
       x="248.04701"
       y="181.81776"
       id="use65" />
  </g>
  <g
     fill="#000000"
     fill-opacity="1"
     id="g66"
     transform="translate(-18.125221,-11.181129)">
    <use
       xlink:href="#glyph-0-6-f0c744e6"
       x="251.15501"
       y="181.81776"
       id="use66" />
  </g>
  <g
     fill="#000000"
     fill-opacity="1"
     id="g67"
     transform="translate(-18.125221,-11.181129)">
    <use
       xlink:href="#glyph-0-7-f0c744e6"
       x="262.81702"
       y="181.81776"
       id="use67" />
  </g>
  <g
     fill="#000000"
     fill-opacity="1"
     id="g68"
     transform="translate(-18.125221,-11.181129)">
    <use
       xlink:href="#glyph-0-2-f0c744e6"
       x="270.60101"
       y="181.81776"
       id="use68" />
  </g>
  <g
     fill="#000000"
     fill-opacity="1"
     id="g69"
     transform="translate(-18.125221,-11.181129)">
    <use
       xlink:href="#glyph-0-8-f0c744e6"
       x="273.70901"
       y="181.81776"
       id="use69" />
  </g>
  <g
     fill="#000000"
     fill-opacity="1"
     id="g70"
     transform="translate(-18.125221,-11.181129)">
    <use
       xlink:href="#glyph-0-9-f0c744e6"
       x="281.49301"
       y="181.81776"
       id="use70" />
  </g>
  <g
     fill="#000000"
     fill-opacity="1"
     id="g71"
     transform="translate(-18.125221,-11.181129)">
    <use
       xlink:href="#glyph-0-1-f0c744e6"
       x="285.38501"
       y="181.81776"
       id="use71" />
  </g>
  <g
     fill="#000000"
     fill-opacity="1"
     id="g72"
     transform="translate(-18.125221,-11.181129)">
    <use
       xlink:href="#glyph-0-10-f0c744e6"
       x="293.16901"
       y="181.81776"
       id="use72" />
  </g>
  <g
     fill="#000000"
     fill-opacity="1"
     id="g73"
     transform="translate(-18.125221,-11.181129)">
    <use
       xlink:href="#glyph-0-11-f0c744e6"
       x="75.887321"
       y="162.258"
       id="use73" />
  </g>
  <g
     fill="#000000"
     fill-opacity="1"
     id="g74"
     transform="translate(-18.125221,-11.181129)">
    <use
       xlink:href="#glyph-0-11-f0c744e6"
       x="167.78566"
       y="162.258"
       id="use74" />
  </g>
  <g
     fill="#000000"
     fill-opacity="1"
     id="g75"
     transform="translate(-18.125221,-11.181129)">
    <use
       xlink:href="#glyph-0-12-f0c744e6"
       x="175.56966"
       y="162.258"
       id="use75" />
  </g>
  <g
     fill="#000000"
     fill-opacity="1"
     id="g76"
     transform="translate(-18.125221,-11.181129)">
    <use
       xlink:href="#glyph-0-13-f0c744e6"
       x="183.35365"
       y="162.258"
       id="use76" />
  </g>
  <g
     fill="#000000"
     fill-opacity="1"
     id="g77"
     transform="translate(-18.125221,-11.181129)">
    <use
       xlink:href="#glyph-0-11-f0c744e6"
       x="265.43185"
       y="162.258"
       id="use77" />
  </g>
  <g
     fill="#000000"
     fill-opacity="1"
     id="g78"
     transform="translate(-18.125221,-11.181129)">
    <use
       xlink:href="#glyph-0-12-f0c744e6"
       x="273.21585"
       y="162.258"
       id="use78" />
  </g>
  <g
     fill="#000000"
     fill-opacity="1"
     id="g79"
     transform="translate(-18.125221,-11.181129)">
    <use
       xlink:href="#glyph-1-0-f0c744e6"
       x="280.99985"
       y="162.258"
       id="use79" />
  </g>
  <g
     fill="#000000"
     fill-opacity="1"
     id="g80"
     transform="translate(-18.125221,-11.181129)">
    <use
       xlink:href="#glyph-0-11-f0c744e6"
       x="363.55316"
       y="162.258"
       id="use80" />
  </g>
  <g
     fill="#000000"
     fill-opacity="1"
     id="g81"
     transform="translate(-18.125221,-11.181129)">
    <use
       xlink:href="#glyph-0-12-f0c744e6"
       x="371.33716"
       y="162.258"
       id="use81" />
  </g>
  <g
     fill="#000000"
     fill-opacity="1"
     id="g82"
     transform="translate(-18.125221,-11.181129)">
    <use
       xlink:href="#glyph-1-1-f0c744e6"
       x="379.12115"
       y="162.258"
       id="use82" />
  </g>
  <g
     fill="#000000"
     fill-opacity="1"
     id="g83"
     transform="translate(-18.125221,-11.181129)">
    <use
       xlink:href="#glyph-2-0-f0c744e6"
       x="28.328346"
       y="107.669"
       id="use83" />
  </g>
  <g
     fill="#000000"
     fill-opacity="1"
     id="g84"
     transform="translate(-18.125221,-11.181129)">
    <use
       xlink:href="#glyph-3-0-f0c744e6"
       x="28.328348"
       y="97.560997"
       id="use84" />
  </g>
  <g
     fill="#000000"
     fill-opacity="1"
     id="g85"
     transform="translate(-18.125221,-11.181129)">
    <use
       xlink:href="#glyph-4-0-f0c744e6"
       x="28.328348"
       y="89.777"
       id="use85" />
  </g>
  <g
     fill="#000000"
     fill-opacity="1"
     id="g86"
     transform="translate(-18.125221,-11.181129)">
    <use
       xlink:href="#glyph-5-0-f0c744e6"
       x="28.328348"
       y="86.668999"
       id="use86" />
  </g>
  <g
     fill="#000000"
     fill-opacity="1"
     id="g87"
     transform="translate(-18.125221,-11.181129)">
    <use
       xlink:href="#glyph-6-0-f0c744e6"
       x="28.328348"
       y="82.777"
       id="use87" />
  </g>
  <g
     fill="#000000"
     fill-opacity="1"
     id="g88"
     transform="translate(-18.125221,-11.181129)">
    <use
       xlink:href="#glyph-7-0-f0c744e6"
       x="28.328348"
       y="78.885002"
       id="use88" />
  </g>
  <g
     fill="#000000"
     fill-opacity="1"
     id="g89"
     transform="translate(-18.125221,-11.181129)">
    <use
       xlink:href="#glyph-8-0-f0c744e6"
       x="28.32835"
       y="71.100998"
       id="use89" />
  </g>
  <g
     fill="#000000"
     fill-opacity="1"
     id="g90"
     transform="translate(-18.125221,-11.181129)">
    <use
       xlink:href="#glyph-9-0-f0c744e6"
       x="28.32835"
       y="66.439003"
       id="use90" />
  </g>
  <g
     fill="#000000"
     fill-opacity="1"
     id="g91"
     transform="translate(-18.125221,-11.181129)">
    <use
       xlink:href="#glyph-10-0-f0c744e6"
       x="28.32835"
       y="61.777004"
       id="use91" />
  </g>
  <g
     fill="#000000"
     fill-opacity="1"
     id="g92"
     transform="translate(-18.125221,-11.181129)">
    <use
       xlink:href="#glyph-11-0-f0c744e6"
       x="28.32835"
       y="53.993004"
       id="use92" />
  </g>
  <g
     fill="#000000"
     fill-opacity="1"
     id="g93"
     transform="translate(-18.125221,-11.181129)">
    <use
       xlink:href="#glyph-12-0-f0c744e6"
       x="56.216"
       y="21.103004"
       id="use93" />
  </g>
  <g
     fill="#000000"
     fill-opacity="1"
     id="g94"
     transform="translate(-18.125221,-11.181129)">
    <use
       xlink:href="#glyph-0-11-f0c744e6"
       x="36.380352"
       y="56.829624"
       id="use94" />
  </g>
  <g
     fill="#000000"
     fill-opacity="1"
     id="g95"
     transform="translate(-18.125221,-11.181129)">
    <use
       xlink:href="#glyph-0-12-f0c744e6"
       x="44.164352"
       y="56.829624"
       id="use95" />
  </g>
  <g
     fill="#000000"
     fill-opacity="1"
     id="g96"
     transform="translate(-18.125221,-11.181129)">
    <use
       xlink:href="#glyph-13-0-f0c744e6"
       x="51.948353"
       y="56.829624"
       id="use96" />
  </g>
  <g
     fill="#000000"
     fill-opacity="1"
     id="g97"
     transform="translate(-18.125221,-11.181129)">
    <use
       xlink:href="#glyph-0-14-f0c744e6"
       x="59.338001"
       y="56.829624"
       id="use97" />
  </g>
  <g
     fill="#000000"
     fill-opacity="1"
     id="g98"
     transform="translate(-18.125221,-11.181129)">
    <use
       xlink:href="#glyph-0-11-f0c744e6"
       x="36.380352"
       y="92.681122"
       id="use98" />
  </g>
  <g
     fill="#000000"
     fill-opacity="1"
     id="g99"
     transform="translate(-18.125221,-11.181129)">
    <use
       xlink:href="#glyph-0-12-f0c744e6"
       x="44.164352"
       y="92.681122"
       id="use99" />
  </g>
  <g
     fill="#000000"
     fill-opacity="1"
     id="g100"
     transform="translate(-18.125221,-11.181129)">
    <use
       xlink:href="#glyph-13-0-f0c744e6"
       x="51.948353"
       y="92.681122"
       id="use100" />
  </g>
  <g
     fill="#000000"
     fill-opacity="1"
     id="g101"
     transform="translate(-18.125221,-11.181129)">
    <use
       xlink:href="#glyph-0-15-f0c744e6"
       x="59.338001"
       y="92.681122"
       id="use101" />
  </g>
  <g
     fill="#000000"
     fill-opacity="1"
     id="g102"
     transform="translate(-18.125221,-11.181129)">
    <use
       xlink:href="#glyph-0-11-f0c744e6"
       x="36.380352"
       y="128.53262"
       id="use102" />
  </g>
  <g
     fill="#000000"
     fill-opacity="1"
     id="g103"
     transform="translate(-18.125221,-11.181129)">
    <use
       xlink:href="#glyph-0-12-f0c744e6"
       x="44.164352"
       y="128.53262"
       id="use103" />
  </g>
  <g
     fill="#000000"
     fill-opacity="1"
     id="g104"
     transform="translate(-18.125221,-11.181129)">
    <use
       xlink:href="#glyph-13-0-f0c744e6"
       x="51.948353"
       y="128.53262"
       id="use104" />
  </g>
  <g
     fill="#000000"
     fill-opacity="1"
     id="g105"
     transform="translate(-18.125221,-11.181129)">
    <use
       xlink:href="#glyph-0-13-f0c744e6"
       x="59.338001"
       y="128.53262"
       id="use105" />
  </g>
  <path
     fill="none"
     stroke-width="1.5"
     stroke-linecap="butt"
     stroke-linejoin="miter"
     stroke="#ffd83d"
     stroke-opacity="1"
     stroke-miterlimit="2"
     d="m 72.191185,22.771996 22.863284,-4.941406 32.667971,6.585937 32.18359,-0.964844 32.55078,-0.308593 32.75,0.113281 32.6875,-0.04687 32.70703,-0.0078"
     id="path105" />
  <path
     fill-rule="nonzero"
     fill="#ffd83d"
     fill-opacity="1"
     d="m 70.066185,18.533715 2.125,2.125 2.128906,-2.125 2.109376,2.113281 -2.125,2.125 2.125,2.125 -2.109376,2.113281 -2.128906,-2.125 -2.125,2.125 -2.113281,-2.113281 2.128906,-2.125 -2.128906,-2.125 z m 0,0"
     id="path106" />
  <path
     fill-rule="nonzero"
     fill="#ffd83d"
     fill-opacity="1"
     d="m 92.929469,13.592309 2.125,2.125 2.125,-2.125 2.11328,2.113281 -2.125,2.125 2.125,2.125 -2.11328,2.113281 -2.125,-2.125 -2.125,2.125 -2.11328,-2.113281 2.125,-2.125 -2.125,-2.125 z m 0,0"
     id="path107" />
  <path
     fill-rule="nonzero"
     fill="#ffd83d"
     fill-opacity="1"
     d="m 125.59353,20.178246 2.12891,2.125 2.125,-2.125 2.11328,2.113281 -2.12891,2.125 2.12891,2.125 -2.11328,2.113282 -2.125,-2.125 -2.12891,2.125 -2.10938,-2.113282 2.125,-2.125 -2.125,-2.125 z m 0,0"
     id="path108" />
  <path
     fill-rule="nonzero"
     fill="#ffd83d"
     fill-opacity="1"
     d="m 157.77712,19.213402 2.12891,2.125 2.125,-2.125 2.11328,2.113281 -2.12891,2.125 2.12891,2.125 -2.11328,2.113282 -2.125,-2.125 -2.12891,2.125 -2.11328,-2.113282 2.12891,-2.125 -2.12891,-2.125 z m 0,0"
     id="path109" />
  <path
     fill-rule="nonzero"
     fill="#ffd83d"
     fill-opacity="1"
     d="m 190.33181,18.904809 2.125,2.125 2.125,-2.125 2.11328,2.113281 -2.125,2.125 2.125,2.125 -2.11328,2.113281 -2.125,-2.125 -2.125,2.125 -2.11328,-2.113281 2.125,-2.125 -2.125,-2.125 z m 0,0"
     id="path110" />
  <path
     fill-rule="nonzero"
     fill="#ffd83d"
     fill-opacity="1"
     d="m 223.08181,19.01809 2.125,2.125 2.125,-2.125 2.11328,2.113281 -2.125,2.125 2.125,2.125 -2.11328,2.113281 -2.125,-2.125 -2.125,2.125 -2.11328,-2.113281 2.125,-2.125 -2.125,-2.125 z m 0,0"
     id="path111" />
  <path
     fill-rule="nonzero"
     fill="#ffd83d"
     fill-opacity="1"
     d="m 255.76931,18.971215 2.125,2.125 2.125,-2.125 2.11328,2.113281 -2.125,2.125 2.125,2.125 -2.11328,2.113281 -2.125,-2.125 -2.125,2.125 -2.11328,-2.113281 2.125,-2.125 -2.125,-2.125 z m 0,0"
     id="path112" />
  <path
     fill-rule="nonzero"
     fill="#ffd83d"
     fill-opacity="1"
     d="m 288.47244,18.963402 2.1289,2.125 2.125,-2.125 2.11328,2.113281 -2.1289,2.125 2.1289,2.125 -2.11328,2.113282 -2.125,-2.125 -2.1289,2.125 -2.11329,-2.113282 2.12891,-2.125 -2.12891,-2.125 z m 0,0"
     id="path113" />
  <path
     fill="none"
     stroke-width="1.5"
     stroke-linecap="butt"
     stroke-linejoin="miter"
     stroke="#ffbb33"
     stroke-opacity="1"
     stroke-miterlimit="2"
     d="m 107.20681,25.416527 29.33203,16.847656 32.16016,11.566407 32.51172,4.320312 32.71875,1.066407 32.71484,0.339843 32.70313,-0.03906 32.70703,-0.01953"
     id="path114" />
  <path
     fill-rule="nonzero"
     fill="#ffbb33"
     fill-opacity="1"
     d="m 105.07791,21.178246 2.1289,2.125 2.125,-2.125 2.11328,2.109375 -2.1289,2.128906 2.1289,2.125 -2.11328,2.113282 -2.125,-2.128907 -2.1289,2.128907 -2.10938,-2.113282 2.125,-2.125 -2.125,-2.128906 z m 0,0"
     id="path115" />
  <path
     fill-rule="nonzero"
     fill="#ffbb33"
     fill-opacity="1"
     d="m 134.41384,38.025902 2.125,2.125 2.125,-2.125 2.11328,2.113281 -2.125,2.125 2.125,2.128907 -2.11328,2.109375 -2.125,-2.125 -2.125,2.125 -2.11328,-2.109375 2.125,-2.128907 -2.125,-2.125 z m 0,0"
     id="path116" />
  <path
     fill-rule="nonzero"
     fill="#ffbb33"
     fill-opacity="1"
     d="m 166.574,49.592309 2.125,2.125 2.125,-2.125 2.11328,2.113281 -2.125,2.125 2.125,2.125 -2.11328,2.113281 -2.125,-2.125 -2.125,2.125 -2.11328,-2.113281 2.125,-2.125 -2.125,-2.125 z m 0,0"
     id="path117" />
  <path
     fill-rule="nonzero"
     fill="#ffbb33"
     fill-opacity="1"
     d="m 199.08572,53.912621 2.125,2.125 2.125,-2.125 2.11328,2.113281 -2.125,2.125 2.125,2.125 -2.11328,2.113281 -2.125,-2.125 -2.125,2.125 -2.11328,-2.113281 2.125,-2.125 -2.125,-2.125 z m 0,0"
     id="path118" />
  <path
     fill-rule="nonzero"
     fill="#ffbb33"
     fill-opacity="1"
     d="m 231.80056,54.979027 2.12891,2.125 2.125,-2.125 2.11328,2.109375 -2.125,2.128907 2.125,2.125 -2.11328,2.113281 -2.125,-2.128907 -2.12891,2.128907 -2.10937,-2.113281 2.125,-2.125 -2.125,-2.128907 z m 0,0"
     id="path119" />
  <path
     fill-rule="nonzero"
     fill="#ffbb33"
     fill-opacity="1"
     d="m 264.51931,55.318871 2.125,2.125 2.125,-2.125 2.11328,2.113281 -2.125,2.125 2.125,2.125 -2.11328,2.113281 -2.125,-2.125 -2.125,2.125 -2.11328,-2.113281 2.125,-2.125 -2.125,-2.125 z m 0,0"
     id="path120" />
  <path
     fill-rule="nonzero"
     fill="#ffbb33"
     fill-opacity="1"
     d="m 297.22244,55.279809 2.125,2.125 2.125,-2.125 2.11328,2.113281 -2.125,2.125 2.125,2.125 -2.11328,2.113281 -2.125,-2.125 -2.125,2.125 -2.11329,-2.113281 2.125,-2.125 -2.125,-2.125 z m 0,0"
     id="path121" />
  <path
     fill-rule="nonzero"
     fill="#ffbb33"
     fill-opacity="1"
     d="m 329.92947,55.260277 2.125,2.125 2.125,-2.125 2.11328,2.113282 -2.125,2.125 2.125,2.125 -2.11328,2.113281 -2.125,-2.125 -2.125,2.125 -2.11328,-2.113281 2.125,-2.125 -2.125,-2.125 z m 0,0"
     id="path122" />
  <path
     fill="none"
     stroke-width="1.5"
     stroke-linecap="butt"
     stroke-linejoin="miter"
     stroke="#ff9b05"
     stroke-opacity="1"
     stroke-miterlimit="2"
     d="m 140.30837,28.053246 29.50782,28.105469 32.39062,20.023437 32.70703,12.894529 32.71485,4.61328 32.70703,0.84375 32.70703,-0.1875 32.70703,0.0977"
     id="path123" />
  <path
     fill-rule="nonzero"
     fill="#ff9b05"
     fill-opacity="1"
     d="m 138.18337,23.814965 2.125,2.128906 2.125,-2.128906 2.11328,2.113281 -2.125,2.125 2.125,2.128906 -2.11328,2.109375 -2.125,-2.125 -2.125,2.125 -2.11328,-2.109375 2.125,-2.128906 -2.125,-2.125 z m 0,0"
     id="path124" />
  <path
     fill-rule="nonzero"
     fill="#ff9b05"
     fill-opacity="1"
     d="m 167.69119,51.920433 2.125,2.125 2.125,-2.125 2.11328,2.113282 -2.125,2.125 2.125,2.125 -2.11328,2.113281 -2.125,-2.125 -2.125,2.125 -2.11329,-2.113281 2.125,-2.125 -2.125,-2.125 z m 0,0"
     id="path125" />
  <path
     fill-rule="nonzero"
     fill="#ff9b05"
     fill-opacity="1"
     d="m 200.08181,71.943871 2.125,2.128906 2.12891,-2.128906 2.10937,2.113281 -2.125,2.125 2.125,2.128907 -2.10937,2.109374 -2.12891,-2.125 -2.125,2.125 -2.11328,-2.109374 2.125,-2.128907 -2.125,-2.125 z m 0,0"
     id="path126" />
  <path
     fill-rule="nonzero"
     fill="#ff9b05"
     fill-opacity="1"
     d="m 232.78884,84.838402 2.125,2.125 2.125,-2.125 2.11328,2.113281 -2.125,2.124998 2.125,2.125 -2.11328,2.11328 -2.125,-2.125 -2.125,2.125 -2.11328,-2.11328 2.125,-2.125 -2.125,-2.124998 z m 0,0"
     id="path127" />
  <path
     fill-rule="nonzero"
     fill="#ff9b05"
     fill-opacity="1"
     d="m 265.49978,89.451681 2.12891,2.125 2.125,-2.125 2.11328,2.11328 -2.125,2.125 2.125,2.125 -2.11328,2.11329 -2.125,-2.125 -2.12891,2.125 -2.10938,-2.11329 2.125,-2.125 -2.125,-2.125 z m 0,0"
     id="path128" />
  <path
     fill-rule="nonzero"
     fill="#ff9b05"
     fill-opacity="1"
     d="m 298.21072,90.295431 2.125,2.125 2.125,-2.125 2.11328,2.11328 -2.125,2.125 2.125,2.125 -2.11328,2.11329 -2.125,-2.125 -2.125,2.125 -2.11328,-2.11329 2.125,-2.125 -2.125,-2.125 z m 0,0"
     id="path129" />
  <path
     fill-rule="nonzero"
     fill="#ff9b05"
     fill-opacity="1"
     d="m 330.91384,90.107931 2.12891,2.12891 2.125,-2.12891 2.11328,2.11328 -2.12891,2.125 2.12891,2.12891 -2.11328,2.10938 -2.125,-2.125 -2.12891,2.125 -2.10937,-2.10938 2.125,-2.12891 -2.125,-2.125 z m 0,0"
     id="path130" />
  <path
     fill-rule="nonzero"
     fill="#ff9b05"
     fill-opacity="1"
     d="m 363.62087,90.205591 2.12891,2.125 2.125,-2.125 2.11328,2.11328 -2.125,2.125 2.125,2.125 -2.11328,2.11328 -2.125,-2.125 -2.12891,2.125 -2.10937,-2.11328 2.125,-2.125 -2.125,-2.125 z m 0,0"
     id="path131" />
  <path
     fill="none"
     stroke-width="1.5"
     stroke-linecap="butt"
     stroke-linejoin="miter"
     stroke="#e07700"
     stroke-opacity="1"
     stroke-miterlimit="2"
     d="m 172.89431,27.568871 29.75,33.789062 32.41016,30.871098 32.67968,19.613279 32.70313,12.0664 32.70703,0.57813 32.70703,-1.39453 32.70703,-0.44532"
     id="path132" />
  <path
     fill-rule="nonzero"
     fill="#e07700"
     fill-opacity="1"
     d="m 170.76931,23.33059 2.125,2.125 2.125,-2.125 2.11328,2.113281 -2.125,2.125 2.125,2.125 -2.11328,2.113281 -2.125,-2.125 -2.125,2.125 -2.11328,-2.113281 2.125,-2.125 -2.125,-2.125 z m 0,0"
     id="path133" />
  <path
     fill-rule="nonzero"
     fill="#e07700"
     fill-opacity="1"
     d="m 200.5154,57.119652 2.12891,2.125 2.125,-2.125 2.11328,2.113281 -2.1289,2.125 2.1289,2.125 -2.11328,2.113282 -2.125,-2.125 -2.12891,2.125 -2.10937,-2.113282 2.125,-2.125 -2.125,-2.125 z m 0,0"
     id="path134" />
  <path
     fill-rule="nonzero"
     fill="#e07700"
     fill-opacity="1"
     d="m 232.92947,87.990746 2.125,2.125005 2.125,-2.125005 2.11328,2.113285 -2.125,2.125 2.125,2.125 -2.11328,2.11328 -2.125,-2.125 -2.125,2.125 -2.11328,-2.11328 2.125,-2.125 -2.125,-2.125 z m 0,0"
     id="path135" />
  <path
     fill-rule="nonzero"
     fill="#e07700"
     fill-opacity="1"
     d="m 265.60915,107.60403 2.125,2.1289 2.125,-2.1289 2.11329,2.11328 -2.125,2.125 2.125,2.1289 -2.11329,2.11329 -2.125,-2.12891 -2.125,2.12891 -2.11328,-2.11329 2.125,-2.1289 -2.125,-2.125 z m 0,0"
     id="path136" />
  <path
     fill-rule="nonzero"
     fill="#e07700"
     fill-opacity="1"
     d="m 298.31228,119.67043 2.125,2.125 2.125,-2.125 2.11328,2.11328 -2.125,2.125 2.125,2.125 -2.11328,2.11328 -2.125,-2.125 -2.125,2.125 -2.11328,-2.11328 2.125,-2.125 -2.125,-2.125 z m 0,0"
     id="path137" />
  <path
     fill-rule="nonzero"
     fill="#e07700"
     fill-opacity="1"
     d="m 331.01931,120.24856 2.125,2.125 2.125,-2.125 2.11328,2.11328 -2.125,2.125 2.125,2.125 -2.11328,2.11328 -2.125,-2.125 -2.125,2.125 -2.11328,-2.11328 2.125,-2.125 -2.125,-2.125 z m 0,0"
     id="path138" />
  <path
     fill-rule="nonzero"
     fill="#e07700"
     fill-opacity="1"
     d="m 363.72244,118.85403 2.1289,2.125 2.125,-2.125 2.11328,2.11328 -2.1289,2.125 2.1289,2.125 -2.11328,2.11328 -2.125,-2.125 -2.1289,2.125 -2.10938,-2.11328 2.125,-2.125 -2.125,-2.125 z m 0,0"
     id="path139" />
  <path
     fill-rule="nonzero"
     fill="#e07700"
     fill-opacity="1"
     d="m 396.42947,118.40871 2.1289,2.125 2.125,-2.125 2.11328,2.11328 -2.1289,2.125 2.1289,2.125 -2.11328,2.11329 -2.125,-2.125 -2.1289,2.125 -2.10938,-2.11329 2.125,-2.125 -2.125,-2.125 z m 0,0"
     id="path140" />
  <path
     fill-rule="nonzero"
     fill="#ffffff"
     fill-opacity="1"
     stroke-width="1"
     stroke-linecap="butt"
     stroke-linejoin="miter"
     stroke="#000000"
     stroke-opacity="1"
     stroke-miterlimit="2"
     d="m 432.87478,117.81887 h 133 V 16.818871 h -133 z m 0,0"
     id="path141" />
  <path
     fill="none"
     stroke-width="1"
     stroke-linecap="butt"
     stroke-linejoin="miter"
     stroke="#000000"
     stroke-opacity="1"
     stroke-miterlimit="1.1547"
     d="m 61.656029,130.31887 v 5"
     id="path142" />
  <path
     fill="none"
     stroke-width="1"
     stroke-linecap="butt"
     stroke-linejoin="miter"
     stroke="#000000"
     stroke-opacity="1"
     stroke-miterlimit="1.1547"
     d="m 159.77712,130.31887 v 5"
     id="path143" />
  <path
     fill="none"
     stroke-width="1"
     stroke-linecap="butt"
     stroke-linejoin="miter"
     stroke="#000000"
     stroke-opacity="1"
     stroke-miterlimit="1.1547"
     d="m 257.89822,130.31887 v 5"
     id="path144" />
  <path
     fill="none"
     stroke-width="1"
     stroke-linecap="butt"
     stroke-linejoin="miter"
     stroke="#000000"
     stroke-opacity="1"
     stroke-miterlimit="1.1547"
     d="m 356.01931,130.31887 v 5"
     id="path145" />
  <path
     fill="none"
     stroke-width="1"
     stroke-linecap="butt"
     stroke-linejoin="miter"
     stroke="#000000"
     stroke-opacity="1"
     stroke-miterlimit="1.1547"
     d="m 55.374779,4.8188705 h -5"
     id="path146" />
  <path
     fill="none"
     stroke-width="1"
     stroke-linecap="butt"
     stroke-linejoin="miter"
     stroke="#000000"
     stroke-opacity="1"
     stroke-miterlimit="1.1547"
     d="m 55.374779,40.670433 h -5"
     id="path147" />
  <path
     fill="none"
     stroke-width="1"
     stroke-linecap="butt"
     stroke-linejoin="miter"
     stroke="#000000"
     stroke-opacity="1"
     stroke-miterlimit="1.1547"
     d="m 55.374779,76.521996 h -5"
     id="path148" />
  <path
     fill="none"
     stroke-width="1"
     stroke-linecap="butt"
     stroke-linejoin="miter"
     stroke="#000000"
     stroke-opacity="1"
     stroke-miterlimit="1.1547"
     d="m 55.374779,112.37356 h -5"
     id="path149" />
  <path
     fill="none"
     stroke-width="1.5"
     stroke-linecap="butt"
     stroke-linejoin="miter"
     stroke="#ffd83d"
     stroke-opacity="1"
     stroke-miterlimit="2"
     d="m 438.8279,32.818871 h 20"
     id="path150" />
  <path
     fill-rule="nonzero"
     fill="#ffd83d"
     fill-opacity="1"
     d="m 446.7029,28.58059 2.125,2.125 2.125,-2.125 2.11329,2.113281 -2.125,2.125 2.125,2.125 -2.11329,2.113281 -2.125,-2.125 -2.125,2.125 -2.11328,-2.113281 2.125,-2.125 -2.125,-2.125 z m 0,0"
     id="path151" />
  <path
     fill="none"
     stroke-width="1.5"
     stroke-linecap="butt"
     stroke-linejoin="miter"
     stroke="#ffbb33"
     stroke-opacity="1"
     stroke-miterlimit="2"
     d="m 438.8279,55.818871 h 20"
     id="path152" />
  <path
     fill-rule="nonzero"
     fill="#ffbb33"
     fill-opacity="1"
     d="m 446.7029,51.58059 2.125,2.125 2.125,-2.125 2.11329,2.113281 -2.125,2.125 2.125,2.125 -2.11329,2.113281 -2.125,-2.125 -2.125,2.125 -2.11328,-2.113281 2.125,-2.125 -2.125,-2.125 z m 0,0"
     id="path153" />
  <path
     fill="none"
     stroke-width="1.5"
     stroke-linecap="butt"
     stroke-linejoin="miter"
     stroke="#ff9b05"
     stroke-opacity="1"
     stroke-miterlimit="2"
     d="m 438.8279,78.818871 h 20"
     id="path154" />
  <path
     fill-rule="nonzero"
     fill="#ff9b05"
     fill-opacity="1"
     d="m 446.7029,74.58059 2.125,2.125 2.125,-2.125 2.11329,2.113281 -2.125,2.125 2.125,2.125 -2.11329,2.113281 -2.125,-2.125 -2.125,2.125 -2.11328,-2.113281 2.125,-2.125 -2.125,-2.125 z m 0,0"
     id="path155" />
  <path
     fill="none"
     stroke-width="1.5"
     stroke-linecap="butt"
     stroke-linejoin="miter"
     stroke="#e07700"
     stroke-opacity="1"
     stroke-miterlimit="2"
     d="m 438.8279,101.81887 h 20"
     id="path156" />
  <path
     fill-rule="nonzero"
     fill="#e07700"
     fill-opacity="1"
     d="m 446.7029,97.580591 2.125,2.125 2.125,-2.125 2.11329,2.11328 -2.125,2.124999 2.125,2.125 -2.11329,2.11328 -2.125,-2.125 -2.125,2.125 -2.11328,-2.11328 2.125,-2.125 -2.125,-2.124999 z m 0,0"
     id="path157" />
  <g
     fill="#000000"
     fill-opacity="1"
     id="g157"
     transform="translate(-18.125221,-11.181129)">
    <use
       xlink:href="#glyph-0-16-f0c744e6"
       x="481.952"
       y="49.103004"
       id="use157" />
  </g>
  <g
     fill="#000000"
     fill-opacity="1"
     id="g158"
     transform="translate(-18.125221,-11.181129)">
    <use
       xlink:href="#glyph-0-9-f0c744e6"
       x="491.28998"
       y="49.103004"
       id="use158" />
  </g>
  <g
     fill="#000000"
     fill-opacity="1"
     id="g159"
     transform="translate(-18.125221,-11.181129)">
    <use
       xlink:href="#glyph-0-17-f0c744e6"
       x="495.18198"
       y="49.103004"
       id="use159" />
  </g>
  <g
     fill="#000000"
     fill-opacity="1"
     id="g160"
     transform="translate(-18.125221,-11.181129)">
    <use
       xlink:href="#glyph-14-0-f0c744e6"
       x="499.84399"
       y="49.103004"
       id="use160" />
  </g>
  <g
     fill="#000000"
     fill-opacity="1"
     id="g161"
     transform="translate(-18.125221,-11.181129)">
    <use
       xlink:href="#glyph-14-1-f0c744e6"
       x="502.952"
       y="49.103004"
       id="use161" />
  </g>
  <g
     fill="#000000"
     fill-opacity="1"
     id="g162"
     transform="translate(-18.125221,-11.181129)">
    <use
       xlink:href="#glyph-14-2-f0c744e6"
       x="509.952"
       y="49.103004"
       id="use162" />
  </g>
  <g
     fill="#000000"
     fill-opacity="1"
     id="g163"
     transform="translate(-18.125221,-11.181129)">
    <use
       xlink:href="#glyph-0-18-f0c744e6"
       x="513.84399"
       y="49.103004"
       id="use163" />
  </g>
  <g
     fill="#000000"
     fill-opacity="1"
     id="g164"
     transform="translate(-18.125221,-11.181129)">
    <use
       xlink:href="#glyph-0-19-f0c744e6"
       x="518.50598"
       y="49.103004"
       id="use164" />
  </g>
  <g
     fill="#000000"
     fill-opacity="1"
     id="g165"
     transform="translate(-18.125221,-11.181129)">
    <use
       xlink:href="#glyph-0-4-f0c744e6"
       x="526.28998"
       y="49.103004"
       id="use165" />
  </g>
  <g
     fill="#000000"
     fill-opacity="1"
     id="g166"
     transform="translate(-18.125221,-11.181129)">
    <use
       xlink:href="#glyph-0-20-f0c744e6"
       x="530.18201"
       y="49.103004"
       id="use166" />
  </g>
  <g
     fill="#000000"
     fill-opacity="1"
     id="g167"
     transform="translate(-18.125221,-11.181129)">
    <use
       xlink:href="#glyph-0-4-f0c744e6"
       x="538.35797"
       y="49.103004"
       id="use167" />
  </g>
  <g
     fill="#000000"
     fill-opacity="1"
     id="g168"
     transform="translate(-18.125221,-11.181129)">
    <use
       xlink:href="#glyph-0-11-f0c744e6"
       x="542.25"
       y="49.103004"
       id="use168" />
  </g>
  <g
     fill="#000000"
     fill-opacity="1"
     id="g169"
     transform="translate(-18.125221,-11.181129)">
    <use
       xlink:href="#glyph-0-21-f0c744e6"
       x="550.034"
       y="49.103004"
       id="use169" />
  </g>
  <g
     fill="#000000"
     fill-opacity="1"
     id="g170"
     transform="translate(-18.125221,-11.181129)">
    <use
       xlink:href="#glyph-0-16-f0c744e6"
       x="481.95203"
       y="72.103004"
       id="use170" />
  </g>
  <g
     fill="#000000"
     fill-opacity="1"
     id="g171"
     transform="translate(-18.125221,-11.181129)">
    <use
       xlink:href="#glyph-0-9-f0c744e6"
       x="491.29001"
       y="72.103004"
       id="use171" />
  </g>
  <g
     fill="#000000"
     fill-opacity="1"
     id="g172"
     transform="translate(-18.125221,-11.181129)">
    <use
       xlink:href="#glyph-0-17-f0c744e6"
       x="495.18201"
       y="72.103004"
       id="use172" />
  </g>
  <g
     fill="#000000"
     fill-opacity="1"
     id="g173"
     transform="translate(-18.125221,-11.181129)">
    <use
       xlink:href="#glyph-0-5-f0c744e6"
       x="499.84402"
       y="72.103004"
       id="use173" />
  </g>
  <g
     fill="#000000"
     fill-opacity="1"
     id="g174"
     transform="translate(-18.125221,-11.181129)">
    <use
       xlink:href="#glyph-0-22-f0c744e6"
       x="502.95203"
       y="72.103004"
       id="use174" />
  </g>
  <g
     fill="#000000"
     fill-opacity="1"
     id="g175"
     transform="translate(-18.125221,-11.181129)">
    <use
       xlink:href="#glyph-0-9-f0c744e6"
       x="509.95203"
       y="72.103004"
       id="use175" />
  </g>
  <g
     fill="#000000"
     fill-opacity="1"
     id="g176"
     transform="translate(-18.125221,-11.181129)">
    <use
       xlink:href="#glyph-0-18-f0c744e6"
       x="513.84399"
       y="72.103004"
       id="use176" />
  </g>
  <g
     fill="#000000"
     fill-opacity="1"
     id="g177"
     transform="translate(-18.125221,-11.181129)">
    <use
       xlink:href="#glyph-0-19-f0c744e6"
       x="518.50604"
       y="72.103004"
       id="use177" />
  </g>
  <g
     fill="#000000"
     fill-opacity="1"
     id="g178"
     transform="translate(-18.125221,-11.181129)">
    <use
       xlink:href="#glyph-0-4-f0c744e6"
       x="526.29004"
       y="72.103004"
       id="use178" />
  </g>
  <g
     fill="#000000"
     fill-opacity="1"
     id="g179"
     transform="translate(-18.125221,-11.181129)">
    <use
       xlink:href="#glyph-0-20-f0c744e6"
       x="530.18201"
       y="72.103004"
       id="use179" />
  </g>
  <g
     fill="#000000"
     fill-opacity="1"
     id="g180"
     transform="translate(-18.125221,-11.181129)">
    <use
       xlink:href="#glyph-0-4-f0c744e6"
       x="538.35803"
       y="72.103004"
       id="use180" />
  </g>
  <g
     fill="#000000"
     fill-opacity="1"
     id="g181"
     transform="translate(-18.125221,-11.181129)">
    <use
       xlink:href="#glyph-0-11-f0c744e6"
       x="542.25"
       y="72.103004"
       id="use181" />
  </g>
  <g
     fill="#000000"
     fill-opacity="1"
     id="g182"
     transform="translate(-18.125221,-11.181129)">
    <use
       xlink:href="#glyph-0-12-f0c744e6"
       x="550.034"
       y="72.103004"
       id="use182" />
  </g>
  <g
     fill="#000000"
     fill-opacity="1"
     id="g183"
     transform="translate(-18.125221,-11.181129)">
    <use
       xlink:href="#glyph-0-21-f0c744e6"
       x="557.81799"
       y="72.103004"
       id="use183" />
  </g>
  <g
     fill="#000000"
     fill-opacity="1"
     id="g184"
     transform="translate(-18.125221,-11.181129)">
    <use
       xlink:href="#glyph-0-16-f0c744e6"
       x="481.952"
       y="95.103004"
       id="use184" />
  </g>
  <g
     fill="#000000"
     fill-opacity="1"
     id="g185"
     transform="translate(-18.125221,-11.181129)">
    <use
       xlink:href="#glyph-0-9-f0c744e6"
       x="491.28998"
       y="95.103004"
       id="use185" />
  </g>
  <g
     fill="#000000"
     fill-opacity="1"
     id="g186"
     transform="translate(-18.125221,-11.181129)">
    <use
       xlink:href="#glyph-0-17-f0c744e6"
       x="495.18198"
       y="95.103004"
       id="use186" />
  </g>
  <g
     fill="#000000"
     fill-opacity="1"
     id="g187"
     transform="translate(-18.125221,-11.181129)">
    <use
       xlink:href="#glyph-14-0-f0c744e6"
       x="499.84399"
       y="95.103004"
       id="use187" />
  </g>
  <g
     fill="#000000"
     fill-opacity="1"
     id="g188"
     transform="translate(-18.125221,-11.181129)">
    <use
       xlink:href="#glyph-14-1-f0c744e6"
       x="502.952"
       y="95.103004"
       id="use188" />
  </g>
  <g
     fill="#000000"
     fill-opacity="1"
     id="g189"
     transform="translate(-18.125221,-11.181129)">
    <use
       xlink:href="#glyph-14-2-f0c744e6"
       x="509.952"
       y="95.103004"
       id="use189" />
  </g>
  <g
     fill="#000000"
     fill-opacity="1"
     id="g190"
     transform="translate(-18.125221,-11.181129)">
    <use
       xlink:href="#glyph-0-18-f0c744e6"
       x="513.84399"
       y="95.103004"
       id="use190" />
  </g>
  <g
     fill="#000000"
     fill-opacity="1"
     id="g191"
     transform="translate(-18.125221,-11.181129)">
    <use
       xlink:href="#glyph-0-19-f0c744e6"
       x="518.50598"
       y="95.103004"
       id="use191" />
  </g>
  <g
     fill="#000000"
     fill-opacity="1"
     id="g192"
     transform="translate(-18.125221,-11.181129)">
    <use
       xlink:href="#glyph-0-4-f0c744e6"
       x="526.28998"
       y="95.103004"
       id="use192" />
  </g>
  <g
     fill="#000000"
     fill-opacity="1"
     id="g193"
     transform="translate(-18.125221,-11.181129)">
    <use
       xlink:href="#glyph-0-20-f0c744e6"
       x="530.18201"
       y="95.103004"
       id="use193" />
  </g>
  <g
     fill="#000000"
     fill-opacity="1"
     id="g194"
     transform="translate(-18.125221,-11.181129)">
    <use
       xlink:href="#glyph-0-4-f0c744e6"
       x="538.35797"
       y="95.103004"
       id="use194" />
  </g>
  <g
     fill="#000000"
     fill-opacity="1"
     id="g195"
     transform="translate(-18.125221,-11.181129)">
    <use
       xlink:href="#glyph-0-11-f0c744e6"
       x="542.25"
       y="95.103004"
       id="use195" />
  </g>
  <g
     fill="#000000"
     fill-opacity="1"
     id="g196"
     transform="translate(-18.125221,-11.181129)">
    <use
       xlink:href="#glyph-0-12-f0c744e6"
       x="550.034"
       y="95.103004"
       id="use196" />
  </g>
  <g
     fill="#000000"
     fill-opacity="1"
     id="g197"
     transform="translate(-18.125221,-11.181129)">
    <use
       xlink:href="#glyph-0-12-f0c744e6"
       x="557.81799"
       y="95.103004"
       id="use197" />
  </g>
  <g
     fill="#000000"
     fill-opacity="1"
     id="g198"
     transform="translate(-18.125221,-11.181129)">
    <use
       xlink:href="#glyph-0-21-f0c744e6"
       x="565.60199"
       y="95.103004"
       id="use198" />
  </g>
  <g
     fill="#000000"
     fill-opacity="1"
     id="g199"
     transform="translate(-18.125221,-11.181129)">
    <use
       xlink:href="#glyph-15-0-f0c744e6"
       x="481.95203"
       y="118.103"
       id="use199" />
  </g>
  <g
     fill="#000000"
     fill-opacity="1"
     id="g200"
     transform="translate(-18.125221,-11.181129)">
    <use
       xlink:href="#glyph-15-1-f0c744e6"
       x="491.29001"
       y="118.103"
       id="use200" />
  </g>
  <g
     fill="#000000"
     fill-opacity="1"
     id="g201"
     transform="translate(-18.125221,-11.181129)">
    <use
       xlink:href="#glyph-15-2-f0c744e6"
       x="495.18201"
       y="118.103"
       id="use201" />
  </g>
  <g
     fill="#000000"
     fill-opacity="1"
     id="g202"
     transform="translate(-18.125221,-11.181129)">
    <use
       xlink:href="#glyph-15-3-f0c744e6"
       x="499.84402"
       y="118.103"
       id="use202" />
  </g>
  <g
     fill="#000000"
     fill-opacity="1"
     id="g203"
     transform="translate(-18.125221,-11.181129)">
    <use
       xlink:href="#glyph-15-4-f0c744e6"
       x="502.95203"
       y="118.103"
       id="use203" />
  </g>
  <g
     fill="#000000"
     fill-opacity="1"
     id="g204"
     transform="translate(-18.125221,-11.181129)">
    <use
       xlink:href="#glyph-15-1-f0c744e6"
       x="509.95203"
       y="118.103"
       id="use204" />
  </g>
  <g
     fill="#000000"
     fill-opacity="1"
     id="g205"
     transform="translate(-18.125221,-11.181129)">
    <use
       xlink:href="#glyph-15-5-f0c744e6"
       x="513.84399"
       y="118.103"
       id="use205" />
  </g>
  <g
     fill="#000000"
     fill-opacity="1"
     id="g206"
     transform="translate(-18.125221,-11.181129)">
    <use
       xlink:href="#glyph-15-6-f0c744e6"
       x="518.50604"
       y="118.103"
       id="use206" />
  </g>
  <g
     fill="#000000"
     fill-opacity="1"
     id="g207"
     transform="translate(-18.125221,-11.181129)">
    <use
       xlink:href="#glyph-15-7-f0c744e6"
       x="526.29004"
       y="118.103"
       id="use207" />
  </g>
  <g
     fill="#000000"
     fill-opacity="1"
     id="g208"
     transform="translate(-18.125221,-11.181129)">
    <use
       xlink:href="#glyph-15-8-f0c744e6"
       x="530.18201"
       y="118.103"
       id="use208" />
  </g>
  <g
     fill="#000000"
     fill-opacity="1"
     id="g209"
     transform="translate(-18.125221,-11.181129)">
    <use
       xlink:href="#glyph-15-7-f0c744e6"
       x="538.35803"
       y="118.103"
       id="use209" />
  </g>
  <g
     fill="#000000"
     fill-opacity="1"
     id="g210"
     transform="translate(-18.125221,-11.181129)">
    <use
       xlink:href="#glyph-15-9-f0c744e6"
       x="542.25"
       y="118.103"
       id="use210" />
  </g>
  <g
     fill="#000000"
     fill-opacity="1"
     id="g211"
     transform="translate(-18.125221,-11.181129)">
    <use
       xlink:href="#glyph-15-10-f0c744e6"
       x="550.034"
       y="118.103"
       id="use211" />
  </g>
  <g
     fill="#000000"
     fill-opacity="1"
     id="g212"
     transform="translate(-18.125221,-11.181129)">
    <use
       xlink:href="#glyph-15-10-f0c744e6"
       x="557.81799"
       y="118.103"
       id="use212" />
  </g>
  <g
     fill="#000000"
     fill-opacity="1"
     id="g213"
     transform="translate(-18.125221,-11.181129)">
    <use
       xlink:href="#glyph-15-10-f0c744e6"
       x="565.60199"
       y="118.103"
       id="use213" />
  </g>
  <g
     fill="#000000"
     fill-opacity="1"
     id="g214"
     transform="translate(-18.125221,-11.181129)">
    <use
       xlink:href="#glyph-15-11-f0c744e6"
       x="573.38599"
       y="118.103"
       id="use214" />
  </g>
  <path
     fill="none"
     stroke-width="1"
     stroke-linecap="butt"
     stroke-linejoin="miter"
     stroke="#000000"
     stroke-opacity="1"
     stroke-miterlimit="1.1547"
     d="M 55.374779,129.81887 H 415.37478"
     id="path214" />
  <path
     fill="none"
     stroke-width="1"
     stroke-linecap="butt"
     stroke-linejoin="miter"
     stroke="#000000"
     stroke-opacity="1"
     stroke-miterlimit="1.1547"
     d="M 55.874779,130.31887 V 4.3188705"
     id="path215" />
  <path
     fill="none"
     stroke-width="1"
     stroke-linecap="butt"
     stroke-linejoin="miter"
     stroke="#000000"
     stroke-opacity="1"
     stroke-miterlimit="1.1547"
     d="M 55.374779,4.8188705 H 415.37478"
     id="path216" />
  <path
     fill="none"
     stroke-width="1"
     stroke-linecap="butt"
     stroke-linejoin="miter"
     stroke="#000000"
     stroke-opacity="1"
     stroke-miterlimit="1.1547"
     d="M 414.87478,130.31887 V 4.3188705"
     id="path217" />
</svg>
