<?xml version="1.0" encoding="UTF-8" standalone="no"?>
<svg
   width="191.02527"
   height="166.31799"
   viewBox="0 0 191.02527 166.31799"
   version="1.1"
   id="svg102"
   sodipodi:docname="adder_bias.svg"
   inkscape:version="1.4.3 (0d15f75042, 2025-12-25)"
   xmlns:inkscape="http://www.inkscape.org/namespaces/inkscape"
   xmlns:sodipodi="http://sodipodi.sourceforge.net/DTD/sodipodi-0.dtd"
   xmlns:xlink="http://www.w3.org/1999/xlink"
   xmlns="http://www.w3.org/2000/svg"
   xmlns:svg="http://www.w3.org/2000/svg">
  <sodipodi:namedview
     id="namedview102"
     pagecolor="#ffffff"
     bordercolor="#000000"
     borderopacity="0.25"
     inkscape:showpageshadow="2"
     inkscape:pageopacity="0.0"
     inkscape:pagecheckerboard="0"
     inkscape:deskcolor="#d1d1d1"
     inkscape:current-layer="svg102" />
  <defs
     id="defs28">
    <g
       id="g28">
      <g
         id="glyph-0-0-e72edadf">
        <path
           d="M 9.484375,-3.71875 C 9.171875,-1.0625 7.765625,0.25 5.28125,0.25 c -3,0 -4.609375,-2.25 -4.609375,-5.234375 0,-2.984375 1.5625,-5.46875 4.65625,-5.46875 2.25,0 3.53125,1.171875 3.9375,3.40625 0,0 -1.328125,0 -1.328125,0 C 7.609375,-8.59375 6.78125,-9.3125 5.1875,-9.3125 c -1.984375,0 -3.21875,1.703125 -3.21875,4.3125 0,2.546875 1.296875,4.109375 3.328125,4.109375 1.71875,0 2.53125,-0.90625 2.84375,-2.828125 z m 0,0"
           id="path1" />
      </g>
      <g
         id="glyph-0-1-e72edadf">
        <path
           d="m 6.796875,0 c 0,0 -1.15625,0 -1.15625,0 0,0 0,-5.078125 0,-5.078125 0,-0.96875 -0.6875,-1.453125 -1.515625,-1.453125 -1.203125,0 -1.984375,0.984375 -1.984375,2.484375 0,0 0,4.046875 0,4.046875 0,0 -1.15625,0 -1.15625,0 0,0 0,-10.203125 0,-10.203125 0,0 1.15625,0 1.15625,0 0,0 0,3.875 0,3.875 0.6875,-0.890625 1.3125,-1.21875 2.359375,-1.21875 1.421875,0 2.296875,0.765625 2.296875,2 z m 0,0"
           id="path2" />
      </g>
      <g
         id="glyph-0-2-e72edadf">
        <path
           d="m 7.1875,-3.328125 c 0,0 -5.40625,0 -5.40625,0 C 1.8125,-1.65625 2.71875,-0.875 3.9375,-0.875 c 0.9375,0 1.59375,-0.390625 1.921875,-1.34375 0,0 1.171875,0 1.171875,0 -0.296875,1.484375 -1.453125,2.421875 -3.140625,2.421875 -2.0625,0 -3.328125,-1.421875 -3.328125,-3.828125 0,-2.40625 1.3125,-3.921875 3.359375,-3.921875 1.375,0 2.484375,0.734375 2.96875,1.9375 C 7.09375,-5.0625 7.1875,-4.390625 7.1875,-3.328125 Z M 5.9375,-4.375 c 0,-1.140625 -0.890625,-2.09375 -2.03125,-2.09375 -1.171875,0 -2,0.875 -2.09375,2.1875 0,0 4.109375,0 4.109375,0 C 5.9375,-4.3125 5.9375,-4.375 5.9375,-4.375 Z m 0,0"
           id="path3" />
      </g>
      <g
         id="glyph-0-3-e72edadf">
        <path
           d="m 10.640625,0 c 0,0 -1.15625,0 -1.15625,0 0,0 0,-5.046875 0,-5.046875 0,-0.9375 -0.5,-1.484375 -1.34375,-1.484375 -0.953125,0 -1.75,0.859375 -1.75,1.921875 0,0 0,4.609375 0,4.609375 0,0 -1.15625,0 -1.15625,0 0,0 0,-5.046875 0,-5.046875 0,-0.9375 -0.484375,-1.484375 -1.359375,-1.484375 -0.953125,0 -1.71875,0.859375 -1.71875,1.921875 0,0 0,4.609375 0,4.609375 C 2.15625,0 1,0 1,0 c 0,0 0,-7.34375 0,-7.34375 0,0 1.0625,0 1.0625,0 0,0 0,1.046875 0,1.046875 0.625,-0.890625 1.265625,-1.25 2.25,-1.25 0.953125,0 1.546875,0.34375 1.96875,1.125 0.6875,-0.828125 1.28125,-1.125 2.265625,-1.125 1.359375,0 2.09375,0.734375 2.09375,2.046875 z m 0,0"
           id="path4" />
      </g>
      <g
         id="glyph-0-4-e72edadf">
        <path
           d="m 7.140625,-3.609375 c 0,2.40625 -1.265625,3.8125 -3.3125,3.8125 -2.09375,0 -3.328125,-1.40625 -3.328125,-3.875 0,-2.453125 1.25,-3.875 3.3125,-3.875 2.109375,0 3.328125,1.40625 3.328125,3.9375 z M 5.921875,-3.625 c 0,-1.828125 -0.78125,-2.84375 -2.09375,-2.84375 -1.3125,0 -2.109375,1.03125 -2.109375,2.796875 0,1.78125 0.796875,2.796875 2.109375,2.796875 1.28125,0 2.09375,-1.03125 2.09375,-2.75 z m 0,0"
           id="path5" />
      </g>
      <g
         id="glyph-0-5-e72edadf">
        <path
           d="m 6.421875,-2.0625 c 0,1.421875 -1.171875,2.265625 -3.015625,2.265625 -1.921875,0 -2.875,-0.75 -2.9375,-2.4375 0,0 1.234375,0 1.234375,0 C 1.859375,-1.125 2.453125,-0.875 3.5,-0.875 c 1.015625,0 1.703125,-0.40625 1.703125,-1.078125 0,-0.53125 -0.3125,-0.78125 -1.125,-0.96875 0,0 -1.09375,-0.265625 -1.09375,-0.265625 C 1.25,-3.609375 0.65625,-4.15625 0.65625,-5.3125 c 0,-1.34375 1.109375,-2.234375 2.8125,-2.234375 1.703125,0 2.65625,0.8125 2.65625,2.25 0,0 -1.21875,0 -1.21875,0 C 4.875,-6.0625 4.375,-6.46875 3.4375,-6.46875 c -0.953125,0 -1.5625,0.4375 -1.5625,1.109375 0,0.515625 0.40625,0.828125 1.359375,1.046875 0,0 1.125,0.265625 1.125,0.265625 1.453125,0.34375 2.0625,0.890625 2.0625,1.984375 z m 0,0"
           id="path6" />
      </g>
      <g
         id="glyph-0-6-e72edadf">
        <path
           d="M 3.5625,0 C 3.15625,0.0625 2.890625,0.09375 2.609375,0.09375 1.6875,0.09375 1.1875,-0.328125 1.1875,-1.0625 c 0,0 0,-5.328125 0,-5.328125 0,0 -0.984375,0 -0.984375,0 0,0 0,-0.953125 0,-0.953125 0,0 0.984375,0 0.984375,0 0,0 0,-2.015625 0,-2.015625 0,0 1.171875,0 1.171875,0 0,0 0,2.015625 0,2.015625 0,0 1.203125,0 1.203125,0 0,0 0,0.953125 0,0.953125 0,0 -1.203125,0 -1.203125,0 0,0 0,4.8125 0,4.8125 0,0.515625 0.125,0.65625 0.640625,0.65625 0.21875,0 0.40625,-0.015625 0.5625,-0.0625 z m 0,0"
           id="path7" />
      </g>
      <g
         id="glyph-0-7-e72edadf">
        <path
           d="M 7.484375,-0.03125 C 7.109375,0.0625 6.9375,0.09375 6.6875,0.09375 6.125,0.09375 5.609375,-0.3125 5.484375,-0.875 4.84375,-0.1875 3.9375,0.203125 3,0.203125 c -1.484375,0 -2.40625,-0.78125 -2.40625,-2.109375 0,-0.890625 0.421875,-1.546875 1.28125,-1.90625 0.453125,-0.171875 0.703125,-0.234375 2.359375,-0.4375 0.921875,-0.125 1.21875,-0.328125 1.21875,-0.8125 0,0 0,-0.3125 0,-0.3125 0,-0.703125 -0.59375,-1.09375 -1.640625,-1.09375 -1.09375,0 -1.625,0.40625 -1.71875,1.296875 0,0 -1.1875,0 -1.1875,0 0.078125,-1.6875 1.171875,-2.375 2.9375,-2.375 1.8125,0 2.765625,0.703125 2.765625,2 0,0 0,4.09375 0,4.09375 0,0.359375 0.21875,0.578125 0.625,0.578125 0.078125,0 0.125,0 0.25,-0.03125 z m -2.03125,-2.5 c 0,0 0,-1.09375 0,-1.09375 -0.40625,0.1875 -0.65625,0.234375 -1.890625,0.40625 -1.234375,0.1875 -1.75,0.515625 -1.75,1.28125 0,0.796875 0.53125,1.125 1.4375,1.125 1.125,0 2.203125,-0.671875 2.203125,-1.71875 z m 0,0"
           id="path8" />
      </g>
      <g
         id="glyph-0-8-e72edadf" />
      <g
         id="glyph-0-9-e72edadf">
        <path
           d="m 2.140625,0 c 0,0 -1.15625,0 -1.15625,0 0,0 0,-7.34375 0,-7.34375 0,0 1.15625,0 1.15625,0 z m 0.15625,-8.4375 c 0,0 -1.453125,0 -1.453125,0 0,0 0,-1.453125 0,-1.453125 0,0 1.453125,0 1.453125,0 z m 0,0"
           id="path9" />
      </g>
      <g
         id="glyph-0-10-e72edadf">
        <path
           d="m 6.390625,0 c 0,0 -5.953125,0 -5.953125,0 0,0 0,-1.046875 0,-1.046875 0,0 4.375,-5.265625 4.375,-5.265625 0,0 -4.078125,0 -4.078125,0 0,0 0,-1.03125 0,-1.03125 0,0 5.46875,0 5.46875,0 0,0 0,1.046875 0,1.046875 0,0 -4.359375,5.28125 -4.359375,5.28125 0,0 4.546875,0 4.546875,0 z m 0,0"
           id="path10" />
      </g>
      <g
         id="glyph-0-11-e72edadf">
        <path
           d="m 7.46875,0 c 0,0 -6.34375,0 -6.34375,0 0,0 0,-10.203125 0,-10.203125 0,0 1.296875,0 1.296875,0 0,0 0,9.0625 0,9.0625 0,0 5.046875,0 5.046875,0 z m 0,0"
           id="path11" />
      </g>
      <g
         id="glyph-0-12-e72edadf">
        <path
           d="m 4.859375,0 c 0,0 -1.234375,0 -1.234375,0 0,0 0,-7.0625 0,-7.0625 0,0 -2.203125,0 -2.203125,0 0,0 0,-0.890625 0,-0.890625 1.90625,-0.234375 2.1875,-0.453125 2.625,-1.96875 0,0 0.8125,0 0.8125,0 z m 0,0"
           id="path12" />
      </g>
      <g
         id="glyph-0-13-e72edadf">
        <path
           d="m 7.09375,-4.78125 c 0,3.265625 -1.140625,4.984375 -3.25,4.984375 -2.125,0 -3.234375,-1.71875 -3.234375,-5.0625 0,-3.328125 1.09375,-5.0625 3.234375,-5.0625 2.15625,0 3.25,1.703125 3.25,5.140625 z m -1.25,-0.109375 c 0,-2.65625 -0.65625,-3.9375 -2,-3.9375 -1.328125,0 -1.984375,1.265625 -1.984375,3.984375 0,2.71875 0.65625,4.03125 1.96875,4.03125 1.359375,0 2.015625,-1.265625 2.015625,-4.078125 z m 0,0"
           id="path13" />
      </g>
      <g
         id="glyph-0-14-e72edadf">
        <path
           d="m 2.953125,-4.6875 c 0,0 -0.75,0 -0.75,0 0,0 0,-3.640625 0,-3.640625 0,0 -1.21875,0 -1.21875,0 0,0 0,-0.578125 0,-0.578125 0,0 0.171875,-0.015625 0.171875,-0.015625 0.890625,-0.046875 1.0625,-0.234375 1.28125,-1 0,0 0.515625,0 0.515625,0 z m 0,0"
           id="path14" />
      </g>
      <g
         id="glyph-0-15-e72edadf">
        <path
           d="m 4.1875,-8.375 c 0,0.65625 -0.421875,1.1875 -1.1875,1.578125 0,0 -0.78125,0.40625 -0.78125,0.40625 -0.53125,0.265625 -0.75,0.53125 -0.890625,0.984375 0,0 2.8125,0 2.8125,0 0,0 0,0.71875 0,0.71875 0,0 -3.734375,0 -3.734375,0 0.0625,-1.1875 0.375,-1.6875 1.546875,-2.296875 0,0 0.734375,-0.390625 0.734375,-0.390625 0.46875,-0.25 0.71875,-0.59375 0.71875,-0.96875 0,-0.53125 -0.453125,-0.921875 -1.046875,-0.921875 -0.65625,0 -1.015625,0.3125 -1.078125,1.21875 0,0 -0.75,0 -0.75,0 0.03125,-1.28125 0.625,-1.875 1.84375,-1.875 1.0625,0 1.8125,0.640625 1.8125,1.546875 z m 0,0"
           id="path15" />
      </g>
      <g
         id="glyph-0-16-e72edadf">
        <path
           d="m 4.234375,-6.171875 c 0,1 -0.734375,1.65625 -1.890625,1.65625 -1.203125,0 -1.875,-0.640625 -1.875,-1.75 0,0 0.78125,0 0.78125,0 0.03125,0.765625 0.375,1.09375 1.109375,1.09375 0.6875,0 1.109375,-0.375 1.109375,-1 0,-0.765625 -0.5,-0.890625 -1.515625,-0.890625 0,0 0,-0.625 0,-0.625 1.046875,0 1.34375,-0.171875 1.34375,-0.734375 0,-0.53125 -0.359375,-0.84375 -0.9375,-0.84375 -0.671875,0 -1,0.296875 -1,1.09375 0,0 -0.765625,0 -0.765625,0 0.015625,-1.171875 0.625,-1.75 1.765625,-1.75 1.0625,0 1.71875,0.5625 1.71875,1.484375 0,0.46875 -0.25,0.828125 -0.703125,1.03125 0.59375,0.203125 0.859375,0.609375 0.859375,1.234375 z m 0,0"
           id="path16" />
      </g>
      <g
         id="glyph-1-0-e72edadf">
        <path
           d="m 7.09375,-4.78125 c 0,3.265625 -1.140625,4.984375 -3.25,4.984375 -2.125,0 -3.234375,-1.71875 -3.234375,-5.0625 0,-3.328125 1.09375,-5.0625 3.234375,-5.0625 2.15625,0 3.25,1.703125 3.25,5.140625 z m -1.25,-0.109375 c 0,-2.65625 -0.65625,-3.9375 -2,-3.9375 -1.328125,0 -1.984375,1.265625 -1.984375,3.984375 0,2.71875 0.65625,4.03125 1.96875,4.03125 1.359375,0 2.015625,-1.265625 2.015625,-4.078125 z m 0,0"
           id="path17" />
      </g>
      <g
         id="glyph-2-0-e72edadf">
        <path
           d="m 0,-9.5 c 0,0 0,1.578125 0,1.578125 -0.421875,0.1875 -1.03125,0.3125 -1.671875,0.296875 0,0 -0.90625,-0.015625 -0.90625,-0.015625 -1.265625,-0.015625 -1.8125,0.53125 -1.8125,1.671875 0,0 0,3.359375 0,3.359375 0,0 4.390625,0 4.390625,0 0,0 0,1.3125 0,1.3125 0,0 -10.203125,0 -10.203125,0 0,0 0,-4.703125 0,-4.703125 0,-2.015625 0.96875,-3.109375 2.734375,-3.109375 1.15625,0 1.875,0.453125 2.421875,1.609375 C -4.5625,-8.609375 -4.0625,-8.859375 -2.375,-8.890625 -1.015625,-8.90625 -0.65625,-9.015625 -0.328125,-9.5 Z m -7.296875,1.75 c -1.140625,0 -1.765625,0.546875 -1.765625,2 0,0 0,3.140625 0,3.140625 0,0 3.515625,0 3.515625,0 0,0 0,-3.140625 0,-3.140625 0,-1.390625 -0.546875,-2 -1.75,-2 z m 0,0"
           id="path18" />
      </g>
      <g
         id="glyph-3-0-e72edadf">
        <path
           d="m -3.328125,-7.1875 c 0,0 0,5.40625 0,5.40625 C -1.65625,-1.8125 -0.875,-2.71875 -0.875,-3.9375 c 0,-0.9375 -0.390625,-1.59375 -1.34375,-1.921875 0,0 0,-1.171875 0,-1.171875 1.484375,0.296875 2.421875,1.453125 2.421875,3.140625 0,2.0625 -1.421875,3.328125 -3.828125,3.328125 -2.40625,0 -3.921875,-1.3125 -3.921875,-3.359375 0,-1.375 0.734375,-2.484375 1.9375,-2.96875 0.546875,-0.203125 1.21875,-0.296875 2.28125,-0.296875 z m -1.046875,1.25 c -1.140625,0 -2.09375,0.890625 -2.09375,2.03125 0,1.171875 0.875,2 2.1875,2.09375 0,0 0,-4.109375 0,-4.109375 C -4.3125,-5.9375 -4.375,-5.9375 -4.375,-5.9375 Z m 0,0"
           id="path19" />
      </g>
      <g
         id="glyph-3-1-e72edadf">
        <path
           d="m -6.3125,-4.5 c 0.03125,1.8125 0.859375,2.359375 2.5,2.359375 0,0 3.8125,0 3.8125,0 0,0 0,1.15625 0,1.15625 0,0 -7.34375,0 -7.34375,0 0,0 0,-1.0625 0,-1.0625 0,0 1.34375,0 1.34375,0 -1.09375,-0.671875 -1.546875,-1.25 -1.546875,-2 0,-0.15625 0.015625,-0.25 0.046875,-0.453125 z m 0,0"
           id="path20" />
      </g>
      <g
         id="glyph-4-0-e72edadf">
        <path
           d="m 0,-2.109375 c 0,0 0,1.15625 0,1.15625 0,0 -10.203125,0 -10.203125,0 0,0 0,-1.15625 0,-1.15625 z m 0,0"
           id="path21" />
      </g>
      <g
         id="glyph-5-0-e72edadf">
        <path
           d="m 0,-2.671875 c 0,0 0,1.453125 0,1.453125 0,0 -1.453125,0 -1.453125,0 0,0 0,-1.453125 0,-1.453125 z m 0,0"
           id="path22" />
      </g>
      <g
         id="glyph-5-1-e72edadf" />
      <g
         id="glyph-6-0-e72edadf">
        <path
           d="m -3.328125,-7.1875 c 0,0 0,5.40625 0,5.40625 C -1.65625,-1.8125 -0.875,-2.71875 -0.875,-3.9375 c 0,-0.9375 -0.390625,-1.59375 -1.34375,-1.921875 0,0 0,-1.171875 0,-1.171875 1.484375,0.296875 2.421875,1.453125 2.421875,3.140625 0,2.0625 -1.421875,3.328125 -3.828125,3.328125 -2.40625,0 -3.921875,-1.3125 -3.921875,-3.359375 0,-1.375 0.734375,-2.484375 1.9375,-2.96875 0.546875,-0.203125 1.21875,-0.296875 2.28125,-0.296875 z m -1.046875,1.25 c -1.140625,0 -2.09375,0.890625 -2.09375,2.03125 0,1.171875 0.875,2 2.1875,2.09375 0,0 0,-4.109375 0,-4.109375 C -4.3125,-5.9375 -4.375,-5.9375 -4.375,-5.9375 Z m 0,0"
           id="path23" />
      </g>
      <g
         id="glyph-7-0-e72edadf">
        <path
           d="m -6.3125,-4.5 c 0.03125,1.8125 0.859375,2.359375 2.5,2.359375 0,0 3.8125,0 3.8125,0 0,0 0,1.15625 0,1.15625 0,0 -7.34375,0 -7.34375,0 0,0 0,-1.0625 0,-1.0625 0,0 1.34375,0 1.34375,0 -1.09375,-0.671875 -1.546875,-1.25 -1.546875,-2 0,-0.15625 0.015625,-0.25 0.046875,-0.453125 z m 0,0"
           id="path24" />
      </g>
      <g
         id="glyph-8-0-e72edadf">
        <path
           d="m -3.609375,-7.140625 c 2.40625,0 3.8125,1.265625 3.8125,3.3125 0,2.09375 -1.40625,3.328125 -3.875,3.328125 -2.453125,0 -3.875,-1.25 -3.875,-3.3125 0,-2.109375 1.40625,-3.328125 3.9375,-3.328125 z M -3.625,-5.921875 c -1.828125,0 -2.84375,0.78125 -2.84375,2.09375 0,1.3125 1.03125,2.109375 2.796875,2.109375 1.78125,0 2.796875,-0.796875 2.796875,-2.109375 0,-1.28125 -1.03125,-2.09375 -2.75,-2.09375 z m 0,0"
           id="path25" />
      </g>
      <g
         id="glyph-9-0-e72edadf">
        <path
           d="m -6.3125,-4.5 c 0.03125,1.8125 0.859375,2.359375 2.5,2.359375 0,0 3.8125,0 3.8125,0 0,0 0,1.15625 0,1.15625 0,0 -7.34375,0 -7.34375,0 0,0 0,-1.0625 0,-1.0625 0,0 1.34375,0 1.34375,0 -1.09375,-0.671875 -1.546875,-1.25 -1.546875,-2 0,-0.15625 0.015625,-0.25 0.046875,-0.453125 z m 0,0"
           id="path26" />
      </g>
      <g
         id="glyph-10-0-e72edadf">
        <path
           d="m 4.859375,0 c 0,0 -1.234375,0 -1.234375,0 0,0 0,-7.0625 0,-7.0625 0,0 -2.203125,0 -2.203125,0 0,0 0,-0.890625 0,-0.890625 1.90625,-0.234375 2.1875,-0.453125 2.625,-1.96875 0,0 0.8125,0 0.8125,0 z m 0,0"
           id="path27" />
      </g>
      <g
         id="glyph-11-0-e72edadf">
        <path
           d="m 0.9375,-7.34375 h 5.515625 v 0.640625 H 0.9375 Z m 0,0"
           id="path28" />
      </g>
    </g>
  </defs>
  <path
     fill-rule="nonzero"
     fill="#ffffff"
     fill-opacity="1"
     d="M 55.874779,125.5 H 181.87478 V 0.5 H 55.874779 Z m 0,0"
     id="path29" />
  <path
     fill="none"
     stroke-width="1"
     stroke-linecap="butt"
     stroke-linejoin="miter"
     stroke="#000000"
     stroke-opacity="0.12"
     stroke-miterlimit="1.1547"
     d="M 61.601339,125.5 V 0.5"
     id="path30" />
  <path
     fill="none"
     stroke-width="1"
     stroke-linecap="butt"
     stroke-linejoin="miter"
     stroke="#000000"
     stroke-opacity="0.12"
     stroke-miterlimit="1.1547"
     d="M 99.784939,125.5 V 0.5"
     id="path31" />
  <path
     fill="none"
     stroke-width="1"
     stroke-linecap="butt"
     stroke-linejoin="miter"
     stroke="#000000"
     stroke-opacity="0.12"
     stroke-miterlimit="1.1547"
     d="M 137.96462,125.5 V 0.5"
     id="path32" />
  <path
     fill="none"
     stroke-width="1"
     stroke-linecap="butt"
     stroke-linejoin="miter"
     stroke="#000000"
     stroke-opacity="0.12"
     stroke-miterlimit="1.1547"
     d="M 176.14822,125.5 V 0.5"
     id="path33" />
  <path
     fill="none"
     stroke-width="1"
     stroke-linecap="butt"
     stroke-linejoin="miter"
     stroke="#000000"
     stroke-opacity="0.12"
     stroke-miterlimit="1.1547"
     d="M 55.874779,6.183594 H 181.87478"
     id="path34" />
  <path
     fill="none"
     stroke-width="1"
     stroke-linecap="butt"
     stroke-linejoin="miter"
     stroke="#000000"
     stroke-opacity="0.12"
     stroke-miterlimit="1.1547"
     d="M 55.874779,40.757812 H 181.87478"
     id="path35" />
  <path
     fill="none"
     stroke-width="1"
     stroke-linecap="butt"
     stroke-linejoin="miter"
     stroke="#000000"
     stroke-opacity="0.12"
     stroke-miterlimit="1.1547"
     d="M 55.874779,75.332031 H 181.87478"
     id="path36" />
  <path
     fill="none"
     stroke-width="1"
     stroke-linecap="butt"
     stroke-linejoin="miter"
     stroke="#000000"
     stroke-opacity="0.12"
     stroke-miterlimit="1.1547"
     d="M 55.874779,109.91016 H 181.87478"
     id="path37" />
  <g
     fill="#000000"
     fill-opacity="1"
     id="g37"
     transform="translate(-110.12522,-15.5)">
    <use
       xlink:href="#glyph-0-0-e72edadf"
       x="174.925"
       y="181.56799"
       id="use37" />
  </g>
  <g
     fill="#000000"
     fill-opacity="1"
     id="g38"
     transform="translate(-110.12522,-15.5)">
    <use
       xlink:href="#glyph-0-1-e72edadf"
       x="185.033"
       y="181.56799"
       id="use38" />
  </g>
  <g
     fill="#000000"
     fill-opacity="1"
     id="g39"
     transform="translate(-110.12522,-15.5)">
    <use
       xlink:href="#glyph-0-2-e72edadf"
       x="192.817"
       y="181.56799"
       id="use39" />
  </g>
  <g
     fill="#000000"
     fill-opacity="1"
     id="g40"
     transform="translate(-110.12522,-15.5)">
    <use
       xlink:href="#glyph-0-3-e72edadf"
       x="200.601"
       y="181.56799"
       id="use40" />
  </g>
  <g
     fill="#000000"
     fill-opacity="1"
     id="g41"
     transform="translate(-110.12522,-15.5)">
    <use
       xlink:href="#glyph-0-4-e72edadf"
       x="212.263"
       y="181.56799"
       id="use41" />
  </g>
  <g
     fill="#000000"
     fill-opacity="1"
     id="g42"
     transform="translate(-110.12522,-15.5)">
    <use
       xlink:href="#glyph-0-5-e72edadf"
       x="220.047"
       y="181.56799"
       id="use42" />
  </g>
  <g
     fill="#000000"
     fill-opacity="1"
     id="g43"
     transform="translate(-110.12522,-15.5)">
    <use
       xlink:href="#glyph-0-6-e72edadf"
       x="227.047"
       y="181.56799"
       id="use43" />
  </g>
  <g
     fill="#000000"
     fill-opacity="1"
     id="g44"
     transform="translate(-110.12522,-15.5)">
    <use
       xlink:href="#glyph-0-7-e72edadf"
       x="230.939"
       y="181.56799"
       id="use44" />
  </g>
  <g
     fill="#000000"
     fill-opacity="1"
     id="g45"
     transform="translate(-110.12522,-15.5)">
    <use
       xlink:href="#glyph-0-6-e72edadf"
       x="238.72299"
       y="181.56799"
       id="use45" />
  </g>
  <g
     fill="#000000"
     fill-opacity="1"
     id="g46"
     transform="translate(-110.12522,-15.5)">
    <use
       xlink:href="#glyph-0-8-e72edadf"
       x="242.61501"
       y="181.56799"
       id="use46" />
  </g>
  <g
     fill="#000000"
     fill-opacity="1"
     id="g47"
     transform="translate(-110.12522,-15.5)">
    <use
       xlink:href="#glyph-0-5-e72edadf"
       x="246.507"
       y="181.56799"
       id="use47" />
  </g>
  <g
     fill="#000000"
     fill-opacity="1"
     id="g48"
     transform="translate(-110.12522,-15.5)">
    <use
       xlink:href="#glyph-0-9-e72edadf"
       x="253.507"
       y="181.56799"
       id="use48" />
  </g>
  <g
     fill="#000000"
     fill-opacity="1"
     id="g49"
     transform="translate(-110.12522,-15.5)">
    <use
       xlink:href="#glyph-0-10-e72edadf"
       x="256.61499"
       y="181.56799"
       id="use49" />
  </g>
  <g
     fill="#000000"
     fill-opacity="1"
     id="g50"
     transform="translate(-110.12522,-15.5)">
    <use
       xlink:href="#glyph-0-2-e72edadf"
       x="263.61499"
       y="181.56799"
       id="use50" />
  </g>
  <g
     fill="#000000"
     fill-opacity="1"
     id="g51"
     transform="translate(-110.12522,-15.5)">
    <use
       xlink:href="#glyph-0-8-e72edadf"
       x="271.39899"
       y="181.56799"
       id="use51" />
  </g>
  <g
     fill="#000000"
     fill-opacity="1"
     id="g52"
     transform="translate(-110.12522,-15.5)">
    <use
       xlink:href="#glyph-0-11-e72edadf"
       x="275.29099"
       y="181.56799"
       id="use52" />
  </g>
  <g
     fill="#000000"
     fill-opacity="1"
     id="g53"
     transform="translate(-110.12522,-15.5)">
    <use
       xlink:href="#glyph-0-12-e72edadf"
       x="167.83528"
       y="162.258"
       id="use53" />
  </g>
  <g
     fill="#000000"
     fill-opacity="1"
     id="g54"
     transform="translate(-110.12522,-15.5)">
    <use
       xlink:href="#glyph-0-12-e72edadf"
       x="202.12509"
       y="162.258"
       id="use54" />
  </g>
  <g
     fill="#000000"
     fill-opacity="1"
     id="g55"
     transform="translate(-110.12522,-15.5)">
    <use
       xlink:href="#glyph-0-13-e72edadf"
       x="209.90909"
       y="162.258"
       id="use55" />
  </g>
  <g
     fill="#000000"
     fill-opacity="1"
     id="g56"
     transform="translate(-110.12522,-15.5)">
    <use
       xlink:href="#glyph-0-12-e72edadf"
       x="236.4149"
       y="162.258"
       id="use56" />
  </g>
  <g
     fill="#000000"
     fill-opacity="1"
     id="g57"
     transform="translate(-110.12522,-15.5)">
    <use
       xlink:href="#glyph-1-0-e72edadf"
       x="244.19891"
       y="162.258"
       id="use57" />
  </g>
  <g
     fill="#000000"
     fill-opacity="1"
     id="g58"
     transform="translate(-110.12522,-15.5)">
    <use
       xlink:href="#glyph-0-13-e72edadf"
       x="251.98291"
       y="162.258"
       id="use58" />
  </g>
  <g
     fill="#000000"
     fill-opacity="1"
     id="g59"
     transform="translate(-110.12522,-15.5)">
    <use
       xlink:href="#glyph-0-12-e72edadf"
       x="270.70474"
       y="162.258"
       id="use59" />
  </g>
  <g
     fill="#000000"
     fill-opacity="1"
     id="g60"
     transform="translate(-110.12522,-15.5)">
    <use
       xlink:href="#glyph-0-13-e72edadf"
       x="278.48874"
       y="162.258"
       id="use60" />
  </g>
  <g
     fill="#000000"
     fill-opacity="1"
     id="g61"
     transform="translate(-110.12522,-15.5)">
    <use
       xlink:href="#glyph-0-13-e72edadf"
       x="286.27274"
       y="162.258"
       id="use61" />
  </g>
  <g
     fill="#000000"
     fill-opacity="1"
     id="g62"
     transform="translate(-110.12522,-15.5)">
    <use
       xlink:href="#glyph-0-13-e72edadf"
       x="294.05673"
       y="162.258"
       id="use62" />
  </g>
  <g
     fill="#000000"
     fill-opacity="1"
     id="g63"
     transform="translate(-110.12522,-15.5)">
    <use
       xlink:href="#glyph-2-0-e72edadf"
       x="120.32835"
       y="107.669"
       id="use63" />
  </g>
  <g
     fill="#000000"
     fill-opacity="1"
     id="g64"
     transform="translate(-110.12522,-15.5)">
    <use
       xlink:href="#glyph-3-0-e72edadf"
       x="120.32835"
       y="97.560997"
       id="use64" />
  </g>
  <g
     fill="#000000"
     fill-opacity="1"
     id="g65"
     transform="translate(-110.12522,-15.5)">
    <use
       xlink:href="#glyph-4-0-e72edadf"
       x="120.32835"
       y="89.777"
       id="use65" />
  </g>
  <g
     fill="#000000"
     fill-opacity="1"
     id="g66"
     transform="translate(-110.12522,-15.5)">
    <use
       xlink:href="#glyph-5-0-e72edadf"
       x="120.32835"
       y="86.668999"
       id="use66" />
  </g>
  <g
     fill="#000000"
     fill-opacity="1"
     id="g67"
     transform="translate(-110.12522,-15.5)">
    <use
       xlink:href="#glyph-5-1-e72edadf"
       x="120.32835"
       y="82.777"
       id="use67" />
  </g>
  <g
     fill="#000000"
     fill-opacity="1"
     id="g68"
     transform="translate(-110.12522,-15.5)">
    <use
       xlink:href="#glyph-6-0-e72edadf"
       x="120.32835"
       y="78.885002"
       id="use68" />
  </g>
  <g
     fill="#000000"
     fill-opacity="1"
     id="g69"
     transform="translate(-110.12522,-15.5)">
    <use
       xlink:href="#glyph-3-1-e72edadf"
       x="120.32835"
       y="71.100998"
       id="use69" />
  </g>
  <g
     fill="#000000"
     fill-opacity="1"
     id="g70"
     transform="translate(-110.12522,-15.5)">
    <use
       xlink:href="#glyph-7-0-e72edadf"
       x="120.32835"
       y="66.439003"
       id="use70" />
  </g>
  <g
     fill="#000000"
     fill-opacity="1"
     id="g71"
     transform="translate(-110.12522,-15.5)">
    <use
       xlink:href="#glyph-8-0-e72edadf"
       x="120.32835"
       y="61.777004"
       id="use71" />
  </g>
  <g
     fill="#000000"
     fill-opacity="1"
     id="g72"
     transform="translate(-110.12522,-15.5)">
    <use
       xlink:href="#glyph-9-0-e72edadf"
       x="120.32835"
       y="53.993004"
       id="use72" />
  </g>
  <g
     fill="#000000"
     fill-opacity="1"
     id="g73"
     transform="translate(-110.12522,-15.5)">
    <use
       xlink:href="#glyph-10-0-e72edadf"
       x="148.216"
       y="26.784828"
       id="use73" />
  </g>
  <g
     fill="#000000"
     fill-opacity="1"
     id="g74"
     transform="translate(-110.12522,-15.5)">
    <use
       xlink:href="#glyph-0-12-e72edadf"
       x="128.38034"
       y="61.235905"
       id="use74" />
  </g>
  <g
     fill="#000000"
     fill-opacity="1"
     id="g75"
     transform="translate(-110.12522,-15.5)">
    <use
       xlink:href="#glyph-0-13-e72edadf"
       x="136.16435"
       y="61.235905"
       id="use75" />
  </g>
  <g
     fill="#000000"
     fill-opacity="1"
     id="g76"
     transform="translate(-110.12522,-15.5)">
    <use
       xlink:href="#glyph-11-0-e72edadf"
       x="143.94835"
       y="61.235905"
       id="use76" />
  </g>
  <g
     fill="#000000"
     fill-opacity="1"
     id="g77"
     transform="translate(-110.12522,-15.5)">
    <use
       xlink:href="#glyph-0-14-e72edadf"
       x="151.338"
       y="61.235905"
       id="use77" />
  </g>
  <g
     fill="#000000"
     fill-opacity="1"
     id="g78"
     transform="translate(-110.12522,-15.5)">
    <use
       xlink:href="#glyph-0-12-e72edadf"
       x="128.38034"
       y="95.81189"
       id="use78" />
  </g>
  <g
     fill="#000000"
     fill-opacity="1"
     id="g79"
     transform="translate(-110.12522,-15.5)">
    <use
       xlink:href="#glyph-0-13-e72edadf"
       x="136.16435"
       y="95.81189"
       id="use79" />
  </g>
  <g
     fill="#000000"
     fill-opacity="1"
     id="g80"
     transform="translate(-110.12522,-15.5)">
    <use
       xlink:href="#glyph-11-0-e72edadf"
       x="143.94835"
       y="95.81189"
       id="use80" />
  </g>
  <g
     fill="#000000"
     fill-opacity="1"
     id="g81"
     transform="translate(-110.12522,-15.5)">
    <use
       xlink:href="#glyph-0-15-e72edadf"
       x="151.338"
       y="95.81189"
       id="use81" />
  </g>
  <g
     fill="#000000"
     fill-opacity="1"
     id="g82"
     transform="translate(-110.12522,-15.5)">
    <use
       xlink:href="#glyph-0-12-e72edadf"
       x="128.38034"
       y="130.38785"
       id="use82" />
  </g>
  <g
     fill="#000000"
     fill-opacity="1"
     id="g83"
     transform="translate(-110.12522,-15.5)">
    <use
       xlink:href="#glyph-0-13-e72edadf"
       x="136.16435"
       y="130.38785"
       id="use83" />
  </g>
  <g
     fill="#000000"
     fill-opacity="1"
     id="g84"
     transform="translate(-110.12522,-15.5)">
    <use
       xlink:href="#glyph-11-0-e72edadf"
       x="143.94835"
       y="130.38785"
       id="use84" />
  </g>
  <g
     fill="#000000"
     fill-opacity="1"
     id="g85"
     transform="translate(-110.12522,-15.5)">
    <use
       xlink:href="#glyph-0-16-e72edadf"
       x="151.338"
       y="130.38785"
       id="use85" />
  </g>
  <path
     fill="none"
     stroke-width="1.5"
     stroke-linecap="butt"
     stroke-linejoin="miter"
     stroke="#e07700"
     stroke-opacity="1"
     stroke-miterlimit="2"
     d="m 61.601339,23.910156 38.1836,35.007813 38.179681,33.703121 38.1836,27.19532"
     id="path85" />
  <path
     fill-rule="nonzero"
     fill="#e07700"
     fill-opacity="1"
     d="m 59.476339,19.671875 2.125,2.125 2.125,-2.125 2.11328,2.113281 -2.125,2.125 2.125,2.125 -2.11328,2.113282 -2.125,-2.125 -2.125,2.125 -2.11328,-2.113282 2.125,-2.125 -2.125,-2.125 z m 0,0"
     id="path86" />
  <path
     fill-rule="nonzero"
     fill="#e07700"
     fill-opacity="1"
     d="m 97.659939,54.679688 2.125,2.125 2.125001,-2.125 2.11328,2.113281 -2.125,2.125 2.125,2.125 -2.11328,2.113281 -2.125001,-2.125 -2.125,2.125 -2.11329,-2.113281 2.125,-2.125 -2.125,-2.125 z m 0,0"
     id="path87" />
  <path
     fill-rule="nonzero"
     fill="#e07700"
     fill-opacity="1"
     d="m 135.83962,88.38281 2.125,2.125 2.125,-2.125 2.11328,2.10938 -2.125,2.1289 2.125,2.125 -2.11328,2.11329 -2.125,-2.12891 -2.125,2.12891 -2.11328,-2.11329 2.125,-2.125 -2.125,-2.1289 z m 0,0"
     id="path88" />
  <path
     fill-rule="nonzero"
     fill="#e07700"
     fill-opacity="1"
     d="m 174.02322,115.57812 2.125,2.12891 2.125,-2.12891 2.11328,2.11329 -2.125,2.125 2.125,2.1289 -2.11328,2.10938 -2.125,-2.125 -2.125,2.125 -2.11328,-2.10938 2.125,-2.1289 -2.125,-2.125 z m 0,0"
     id="path89" />
  <path
     fill="none"
     stroke-width="1.5"
     stroke-linecap="butt"
     stroke-linejoin="miter"
     stroke="#000000"
     stroke-opacity="1"
     stroke-dasharray="4.5, 4.5"
     stroke-miterlimit="2"
     d="M 61.601339,6.183594 176.14822,109.91016"
     id="path90" />
  <path
     fill="none"
     stroke-width="1"
     stroke-linecap="butt"
     stroke-linejoin="miter"
     stroke="#000000"
     stroke-opacity="1"
     stroke-miterlimit="1.1547"
     d="m 61.601339,126 v 5"
     id="path91" />
  <path
     fill="none"
     stroke-width="1"
     stroke-linecap="butt"
     stroke-linejoin="miter"
     stroke="#000000"
     stroke-opacity="1"
     stroke-miterlimit="1.1547"
     d="m 99.784939,126 v 5"
     id="path92" />
  <path
     fill="none"
     stroke-width="1"
     stroke-linecap="butt"
     stroke-linejoin="miter"
     stroke="#000000"
     stroke-opacity="1"
     stroke-miterlimit="1.1547"
     d="m 137.96462,126 v 5"
     id="path93" />
  <path
     fill="none"
     stroke-width="1"
     stroke-linecap="butt"
     stroke-linejoin="miter"
     stroke="#000000"
     stroke-opacity="1"
     stroke-miterlimit="1.1547"
     d="m 176.14822,126 v 5"
     id="path94" />
  <path
     fill="none"
     stroke-width="1"
     stroke-linecap="butt"
     stroke-linejoin="miter"
     stroke="#000000"
     stroke-opacity="1"
     stroke-miterlimit="1.1547"
     d="m 55.374779,6.183594 h -5"
     id="path95" />
  <path
     fill="none"
     stroke-width="1"
     stroke-linecap="butt"
     stroke-linejoin="miter"
     stroke="#000000"
     stroke-opacity="1"
     stroke-miterlimit="1.1547"
     d="m 55.374779,40.757812 h -5"
     id="path96" />
  <path
     fill="none"
     stroke-width="1"
     stroke-linecap="butt"
     stroke-linejoin="miter"
     stroke="#000000"
     stroke-opacity="1"
     stroke-miterlimit="1.1547"
     d="m 55.374779,75.332031 h -5"
     id="path97" />
  <path
     fill="none"
     stroke-width="1"
     stroke-linecap="butt"
     stroke-linejoin="miter"
     stroke="#000000"
     stroke-opacity="1"
     stroke-miterlimit="1.1547"
     d="m 55.374779,109.91016 h -5"
     id="path98" />
  <path
     fill="none"
     stroke-width="1"
     stroke-linecap="butt"
     stroke-linejoin="miter"
     stroke="#000000"
     stroke-opacity="1"
     stroke-miterlimit="1.1547"
     d="M 55.374779,125.5 H 182.37478"
     id="path99" />
  <path
     fill="none"
     stroke-width="1"
     stroke-linecap="butt"
     stroke-linejoin="miter"
     stroke="#000000"
     stroke-opacity="1"
     stroke-miterlimit="1.1547"
     d="M 55.874779,126 V 0"
     id="path100" />
  <path
     fill="none"
     stroke-width="1"
     stroke-linecap="butt"
     stroke-linejoin="miter"
     stroke="#000000"
     stroke-opacity="1"
     stroke-miterlimit="1.1547"
     d="M 55.374779,0.5 H 182.37478"
     id="path101" />
  <path
     fill="none"
     stroke-width="1"
     stroke-linecap="butt"
     stroke-linejoin="miter"
     stroke="#000000"
     stroke-opacity="1"
     stroke-miterlimit="1.1547"
     d="M 181.87478,126 V 0"
     id="path102" />
</svg>
